G04 #@! TF.FileFunction,Paste,Top*
%FSLAX46Y46*%
G04 Gerber Fmt 4.6, Leading zero omitted, Abs format (unit mm)*
G04 Created by KiCad (PCBNEW (2015-08-18 BZR 6103)-product) date Wednesday, 26 August 2015 13:48:05*
%MOMM*%
G01*
G04 APERTURE LIST*
%ADD10C,0.150000*%
%ADD11R,1.200000X0.400000*%
%ADD12R,0.750000X0.800000*%
%ADD13R,0.400000X1.350000*%
%ADD14R,1.900000X1.300000*%
%ADD15R,1.900000X1.900000*%
%ADD16R,1.550000X1.300000*%
%ADD17R,0.890000X3.000000*%
%ADD18R,0.800000X0.900000*%
%ADD19R,0.900000X0.800000*%
%ADD20R,0.797560X0.797560*%
%ADD21R,1.200000X1.016000*%
%ADD22R,0.500000X0.900000*%
G04 APERTURE END LIST*
D10*
D11*
X112000000Y-108077500D03*
X112000000Y-108712500D03*
X112000000Y-109347500D03*
X112000000Y-109982500D03*
X112000000Y-110617500D03*
X112000000Y-111252500D03*
X112000000Y-111887500D03*
X112000000Y-112522500D03*
X117200000Y-112522500D03*
X117200000Y-111887500D03*
X117200000Y-111252500D03*
X117200000Y-110617500D03*
X117200000Y-109982500D03*
X117200000Y-109347500D03*
X117200000Y-108712500D03*
X117200000Y-108077500D03*
D12*
X129100000Y-103250000D03*
X129100000Y-101750000D03*
X123400000Y-103250000D03*
X123400000Y-101750000D03*
X112200000Y-103250000D03*
X112200000Y-101750000D03*
X113800000Y-103250000D03*
X113800000Y-101750000D03*
X101700000Y-106030000D03*
X101700000Y-107530000D03*
X107034000Y-106030000D03*
X107034000Y-107530000D03*
X115400000Y-103250000D03*
X115400000Y-101750000D03*
D13*
X105150000Y-104175000D03*
X106450000Y-104175000D03*
X105800000Y-104175000D03*
X107100000Y-104175000D03*
X104500000Y-104175000D03*
D14*
X101850000Y-101500000D03*
D15*
X104600000Y-101500000D03*
X107000000Y-101500000D03*
D14*
X109750000Y-101500000D03*
D16*
X131761000Y-112840000D03*
X131761000Y-108340000D03*
X139711000Y-112840000D03*
X139711000Y-108340000D03*
D17*
X126600000Y-112250000D03*
X126600000Y-107750000D03*
X124600000Y-112250000D03*
X124600000Y-107750000D03*
X122600000Y-107750000D03*
X122600000Y-112250000D03*
D18*
X131585000Y-105500000D03*
X133015000Y-105500000D03*
X130015000Y-105500000D03*
X128585000Y-105500000D03*
D19*
X121800000Y-103215000D03*
X121800000Y-101785000D03*
X117200000Y-103215000D03*
X117200000Y-101785000D03*
D18*
X134585000Y-105500000D03*
X136015000Y-105500000D03*
X137585000Y-105500000D03*
X139015000Y-105500000D03*
D19*
X104494000Y-111813000D03*
X104494000Y-110383000D03*
X106907000Y-110383000D03*
X106907000Y-111813000D03*
X105256000Y-106065000D03*
X105256000Y-107495000D03*
X103478000Y-106065000D03*
X103478000Y-107495000D03*
X108812000Y-107495000D03*
X108812000Y-106065000D03*
D20*
X131000000Y-103249300D03*
X131000000Y-101750700D03*
X132600000Y-103249300D03*
X132600000Y-101750700D03*
X118700000Y-101750700D03*
X118700000Y-103249300D03*
X120300000Y-101750700D03*
X120300000Y-103249300D03*
D21*
X125140000Y-101550000D03*
X125140000Y-103450000D03*
X127260000Y-102500000D03*
X136560000Y-103450000D03*
X136560000Y-101550000D03*
X134440000Y-102500000D03*
D20*
X120878600Y-109220000D03*
X119380000Y-109220000D03*
D22*
X121920000Y-105410000D03*
X123420000Y-105410000D03*
M02*
