G04 #@! TF.FileFunction,Legend,Top*
%FSLAX46Y46*%
G04 Gerber Fmt 4.6, Leading zero omitted, Abs format (unit mm)*
G04 Created by KiCad (PCBNEW (2015-08-18 BZR 6103)-product) date Wednesday, 26 August 2015 13:48:05*
%MOMM*%
G01*
G04 APERTURE LIST*
%ADD10C,0.150000*%
%ADD11C,0.200000*%
%ADD12C,0.175000*%
%ADD13C,0.125000*%
%ADD14C,0.100000*%
%ADD15C,0.002540*%
%ADD16C,0.127000*%
G04 APERTURE END LIST*
D10*
D11*
X140500000Y-102250000D02*
X137500000Y-102250000D01*
X140500000Y-105750000D02*
X140500000Y-102250000D01*
X139625000Y-105750000D02*
X140500000Y-105750000D01*
X100625000Y-105750000D02*
X100925000Y-105750000D01*
X100625000Y-102250000D02*
X100625000Y-105750000D01*
X101600000Y-102250000D02*
X100625000Y-102250000D01*
D12*
X121133333Y-109200000D02*
X121100000Y-109166666D01*
X121066667Y-109100000D01*
X121066667Y-108933333D01*
X121100000Y-108866666D01*
X121133333Y-108833333D01*
X121200000Y-108800000D01*
X121266667Y-108800000D01*
X121366667Y-108833333D01*
X121766667Y-109233333D01*
X121766667Y-108800000D01*
D13*
X139789286Y-103264286D02*
X140289286Y-103264286D01*
X139503571Y-103442857D02*
X140039286Y-103621429D01*
X140039286Y-103157143D01*
X139539286Y-102728571D02*
X139539286Y-102657143D01*
X139575000Y-102585714D01*
X139610714Y-102550000D01*
X139682143Y-102514286D01*
X139825000Y-102478571D01*
X140003571Y-102478571D01*
X140146429Y-102514286D01*
X140217857Y-102550000D01*
X140253571Y-102585714D01*
X140289286Y-102657143D01*
X140289286Y-102728571D01*
X140253571Y-102800000D01*
X140217857Y-102835714D01*
X140146429Y-102871429D01*
X140003571Y-102907143D01*
X139825000Y-102907143D01*
X139682143Y-102871429D01*
X139610714Y-102835714D01*
X139575000Y-102800000D01*
X139539286Y-102728571D01*
X139539286Y-105557143D02*
X139539286Y-105092857D01*
X139825000Y-105342857D01*
X139825000Y-105235715D01*
X139860714Y-105164286D01*
X139896429Y-105128572D01*
X139967857Y-105092857D01*
X140146429Y-105092857D01*
X140217857Y-105128572D01*
X140253571Y-105164286D01*
X140289286Y-105235715D01*
X140289286Y-105450000D01*
X140253571Y-105521429D01*
X140217857Y-105557143D01*
X140289286Y-104735714D02*
X140289286Y-104592857D01*
X140253571Y-104521429D01*
X140217857Y-104485714D01*
X140110714Y-104414286D01*
X139967857Y-104378571D01*
X139682143Y-104378571D01*
X139610714Y-104414286D01*
X139575000Y-104450000D01*
X139539286Y-104521429D01*
X139539286Y-104664286D01*
X139575000Y-104735714D01*
X139610714Y-104771429D01*
X139682143Y-104807143D01*
X139860714Y-104807143D01*
X139932143Y-104771429D01*
X139967857Y-104735714D01*
X140003571Y-104664286D01*
X140003571Y-104521429D01*
X139967857Y-104450000D01*
X139932143Y-104414286D01*
X139860714Y-104378571D01*
X101060714Y-103214286D02*
X101025000Y-103178572D01*
X100989286Y-103107143D01*
X100989286Y-102928572D01*
X101025000Y-102857143D01*
X101060714Y-102821429D01*
X101132143Y-102785714D01*
X101203571Y-102785714D01*
X101310714Y-102821429D01*
X101739286Y-103250000D01*
X101739286Y-102785714D01*
X125514287Y-105226190D02*
X125514287Y-105630952D01*
X125538096Y-105678571D01*
X125561906Y-105702381D01*
X125609525Y-105726190D01*
X125704763Y-105726190D01*
X125752382Y-105702381D01*
X125776191Y-105678571D01*
X125800001Y-105630952D01*
X125800001Y-105226190D01*
X126014287Y-105583333D02*
X126252382Y-105583333D01*
X125966668Y-105726190D02*
X126133335Y-105226190D01*
X126300001Y-105726190D01*
X126752382Y-105726190D02*
X126585715Y-105488095D01*
X126466668Y-105726190D02*
X126466668Y-105226190D01*
X126657144Y-105226190D01*
X126704763Y-105250000D01*
X126728572Y-105273810D01*
X126752382Y-105321429D01*
X126752382Y-105392857D01*
X126728572Y-105440476D01*
X126704763Y-105464286D01*
X126657144Y-105488095D01*
X126466668Y-105488095D01*
X126895239Y-105226190D02*
X127180953Y-105226190D01*
X127038096Y-105726190D02*
X127038096Y-105226190D01*
X127609524Y-105726190D02*
X127323810Y-105726190D01*
X127466667Y-105726190D02*
X127466667Y-105226190D01*
X127419048Y-105297619D01*
X127371429Y-105345238D01*
X127323810Y-105369048D01*
X121864287Y-105226190D02*
X121864287Y-105630952D01*
X121888096Y-105678571D01*
X121911906Y-105702381D01*
X121959525Y-105726190D01*
X122054763Y-105726190D01*
X122102382Y-105702381D01*
X122126191Y-105678571D01*
X122150001Y-105630952D01*
X122150001Y-105226190D01*
X122364287Y-105583333D02*
X122602382Y-105583333D01*
X122316668Y-105726190D02*
X122483335Y-105226190D01*
X122650001Y-105726190D01*
X123102382Y-105726190D02*
X122935715Y-105488095D01*
X122816668Y-105726190D02*
X122816668Y-105226190D01*
X123007144Y-105226190D01*
X123054763Y-105250000D01*
X123078572Y-105273810D01*
X123102382Y-105321429D01*
X123102382Y-105392857D01*
X123078572Y-105440476D01*
X123054763Y-105464286D01*
X123007144Y-105488095D01*
X122816668Y-105488095D01*
X123245239Y-105226190D02*
X123530953Y-105226190D01*
X123388096Y-105726190D02*
X123388096Y-105226190D01*
X123792858Y-105226190D02*
X123840477Y-105226190D01*
X123888096Y-105250000D01*
X123911905Y-105273810D01*
X123935715Y-105321429D01*
X123959524Y-105416667D01*
X123959524Y-105535714D01*
X123935715Y-105630952D01*
X123911905Y-105678571D01*
X123888096Y-105702381D01*
X123840477Y-105726190D01*
X123792858Y-105726190D01*
X123745239Y-105702381D01*
X123721429Y-105678571D01*
X123697620Y-105630952D01*
X123673810Y-105535714D01*
X123673810Y-105416667D01*
X123697620Y-105321429D01*
X123721429Y-105273810D01*
X123745239Y-105250000D01*
X123792858Y-105226190D01*
D12*
X121766667Y-110800000D02*
X121766667Y-111200000D01*
X121766667Y-111000000D02*
X121066667Y-111000000D01*
X121166667Y-111066666D01*
X121233333Y-111133333D01*
X121266667Y-111200000D01*
D13*
X101739286Y-104785714D02*
X101739286Y-105214286D01*
X101739286Y-105000000D02*
X100989286Y-105000000D01*
X101096429Y-105071429D01*
X101167857Y-105142857D01*
X101203571Y-105214286D01*
D14*
X111017714Y-105761314D02*
X111162857Y-105761314D01*
X111235429Y-105725029D01*
X111271714Y-105688743D01*
X111344286Y-105579886D01*
X111380571Y-105434743D01*
X111380571Y-105144457D01*
X111344286Y-105071886D01*
X111308000Y-105035600D01*
X111235429Y-104999314D01*
X111090286Y-104999314D01*
X111017714Y-105035600D01*
X110981429Y-105071886D01*
X110945143Y-105144457D01*
X110945143Y-105325886D01*
X110981429Y-105398457D01*
X111017714Y-105434743D01*
X111090286Y-105471029D01*
X111235429Y-105471029D01*
X111308000Y-105434743D01*
X111344286Y-105398457D01*
X111380571Y-105325886D01*
X112033714Y-104999314D02*
X111888571Y-104999314D01*
X111816000Y-105035600D01*
X111779714Y-105071886D01*
X111707143Y-105180743D01*
X111670857Y-105325886D01*
X111670857Y-105616171D01*
X111707143Y-105688743D01*
X111743428Y-105725029D01*
X111816000Y-105761314D01*
X111961143Y-105761314D01*
X112033714Y-105725029D01*
X112070000Y-105688743D01*
X112106285Y-105616171D01*
X112106285Y-105434743D01*
X112070000Y-105362171D01*
X112033714Y-105325886D01*
X111961143Y-105289600D01*
X111816000Y-105289600D01*
X111743428Y-105325886D01*
X111707143Y-105362171D01*
X111670857Y-105434743D01*
X112686857Y-105362171D02*
X112795714Y-105398457D01*
X112831999Y-105434743D01*
X112868285Y-105507314D01*
X112868285Y-105616171D01*
X112831999Y-105688743D01*
X112795714Y-105725029D01*
X112723142Y-105761314D01*
X112432857Y-105761314D01*
X112432857Y-104999314D01*
X112686857Y-104999314D01*
X112759428Y-105035600D01*
X112795714Y-105071886D01*
X112831999Y-105144457D01*
X112831999Y-105217029D01*
X112795714Y-105289600D01*
X112759428Y-105325886D01*
X112686857Y-105362171D01*
X112432857Y-105362171D01*
X113303714Y-105761314D02*
X113231142Y-105725029D01*
X113194857Y-105688743D01*
X113158571Y-105616171D01*
X113158571Y-105398457D01*
X113194857Y-105325886D01*
X113231142Y-105289600D01*
X113303714Y-105253314D01*
X113412571Y-105253314D01*
X113485142Y-105289600D01*
X113521428Y-105325886D01*
X113557714Y-105398457D01*
X113557714Y-105616171D01*
X113521428Y-105688743D01*
X113485142Y-105725029D01*
X113412571Y-105761314D01*
X113303714Y-105761314D01*
X114210857Y-105761314D02*
X114210857Y-105362171D01*
X114174571Y-105289600D01*
X114102000Y-105253314D01*
X113956857Y-105253314D01*
X113884286Y-105289600D01*
X114210857Y-105725029D02*
X114138286Y-105761314D01*
X113956857Y-105761314D01*
X113884286Y-105725029D01*
X113848000Y-105652457D01*
X113848000Y-105579886D01*
X113884286Y-105507314D01*
X113956857Y-105471029D01*
X114138286Y-105471029D01*
X114210857Y-105434743D01*
X114573715Y-105761314D02*
X114573715Y-105253314D01*
X114573715Y-105398457D02*
X114610000Y-105325886D01*
X114646286Y-105289600D01*
X114718857Y-105253314D01*
X114791429Y-105253314D01*
X115372000Y-105761314D02*
X115372000Y-104999314D01*
X115372000Y-105725029D02*
X115299429Y-105761314D01*
X115154286Y-105761314D01*
X115081714Y-105725029D01*
X115045429Y-105688743D01*
X115009143Y-105616171D01*
X115009143Y-105398457D01*
X115045429Y-105325886D01*
X115081714Y-105289600D01*
X115154286Y-105253314D01*
X115299429Y-105253314D01*
X115372000Y-105289600D01*
X115698572Y-105725029D02*
X115771143Y-105761314D01*
X115916286Y-105761314D01*
X115988858Y-105725029D01*
X116025143Y-105652457D01*
X116025143Y-105616171D01*
X115988858Y-105543600D01*
X115916286Y-105507314D01*
X115807429Y-105507314D01*
X115734858Y-105471029D01*
X115698572Y-105398457D01*
X115698572Y-105362171D01*
X115734858Y-105289600D01*
X115807429Y-105253314D01*
X115916286Y-105253314D01*
X115988858Y-105289600D01*
X116932286Y-104999314D02*
X116932286Y-105616171D01*
X116968571Y-105688743D01*
X117004857Y-105725029D01*
X117077428Y-105761314D01*
X117222571Y-105761314D01*
X117295143Y-105725029D01*
X117331428Y-105688743D01*
X117367714Y-105616171D01*
X117367714Y-104999314D01*
X117694286Y-105543600D02*
X118057143Y-105543600D01*
X117621714Y-105761314D02*
X117875714Y-104999314D01*
X118129714Y-105761314D01*
X118819143Y-105761314D02*
X118565143Y-105398457D01*
X118383715Y-105761314D02*
X118383715Y-104999314D01*
X118674000Y-104999314D01*
X118746572Y-105035600D01*
X118782857Y-105071886D01*
X118819143Y-105144457D01*
X118819143Y-105253314D01*
X118782857Y-105325886D01*
X118746572Y-105362171D01*
X118674000Y-105398457D01*
X118383715Y-105398457D01*
X119036857Y-104999314D02*
X119472286Y-104999314D01*
X119254572Y-105761314D02*
X119254572Y-104999314D01*
X110908857Y-106420114D02*
X111090286Y-106928114D01*
X111271714Y-106420114D01*
X111961142Y-106928114D02*
X111525714Y-106928114D01*
X111743428Y-106928114D02*
X111743428Y-106166114D01*
X111670857Y-106274971D01*
X111598285Y-106347543D01*
X111525714Y-106383829D01*
X112287714Y-106855543D02*
X112323999Y-106891829D01*
X112287714Y-106928114D01*
X112251428Y-106891829D01*
X112287714Y-106855543D01*
X112287714Y-106928114D01*
X113049713Y-106928114D02*
X112614285Y-106928114D01*
X112831999Y-106928114D02*
X112831999Y-106166114D01*
X112759428Y-106274971D01*
X112686856Y-106347543D01*
X112614285Y-106383829D01*
X114319713Y-106928114D02*
X113956856Y-106928114D01*
X113956856Y-106166114D01*
X114573713Y-106928114D02*
X114573713Y-106420114D01*
X114573713Y-106166114D02*
X114537427Y-106202400D01*
X114573713Y-106238686D01*
X114609998Y-106202400D01*
X114573713Y-106166114D01*
X114573713Y-106238686D01*
X114936570Y-106420114D02*
X114936570Y-106928114D01*
X114936570Y-106492686D02*
X114972855Y-106456400D01*
X115045427Y-106420114D01*
X115154284Y-106420114D01*
X115226855Y-106456400D01*
X115263141Y-106528971D01*
X115263141Y-106928114D01*
X115952570Y-106928114D02*
X115952570Y-106528971D01*
X115916284Y-106456400D01*
X115843713Y-106420114D01*
X115698570Y-106420114D01*
X115625999Y-106456400D01*
X115952570Y-106891829D02*
X115879999Y-106928114D01*
X115698570Y-106928114D01*
X115625999Y-106891829D01*
X115589713Y-106819257D01*
X115589713Y-106746686D01*
X115625999Y-106674114D01*
X115698570Y-106637829D01*
X115879999Y-106637829D01*
X115952570Y-106601543D01*
X116315428Y-106928114D02*
X116315428Y-106420114D01*
X116315428Y-106565257D02*
X116351713Y-106492686D01*
X116387999Y-106456400D01*
X116460570Y-106420114D01*
X116533142Y-106420114D01*
X116895999Y-106928114D02*
X116823427Y-106891829D01*
X116787142Y-106855543D01*
X116750856Y-106782971D01*
X116750856Y-106565257D01*
X116787142Y-106492686D01*
X116823427Y-106456400D01*
X116895999Y-106420114D01*
X117004856Y-106420114D01*
X117077427Y-106456400D01*
X117113713Y-106492686D01*
X117149999Y-106565257D01*
X117149999Y-106782971D01*
X117113713Y-106855543D01*
X117077427Y-106891829D01*
X117004856Y-106928114D01*
X116895999Y-106928114D01*
D10*
X113800000Y-107700000D02*
X113800000Y-108700000D01*
X113800000Y-108700000D02*
X115400000Y-108700000D01*
X115400000Y-108700000D02*
X115400000Y-107700000D01*
X113612311Y-108400000D02*
G75*
G03X113612311Y-108400000I-412311J0D01*
G01*
X112600000Y-112947500D02*
X116600000Y-112947500D01*
X111325000Y-107652500D02*
X116600000Y-107652500D01*
D15*
G36*
X101044680Y-112317200D02*
X101062460Y-112309580D01*
X101095480Y-112286720D01*
X101146280Y-112253700D01*
X101204700Y-112215600D01*
X101265660Y-112174960D01*
X101313920Y-112141940D01*
X101349480Y-112119080D01*
X101362180Y-112111460D01*
X101369800Y-112114000D01*
X101397740Y-112129240D01*
X101438380Y-112149560D01*
X101463780Y-112162260D01*
X101501880Y-112177500D01*
X101519660Y-112182580D01*
X101522200Y-112177500D01*
X101537440Y-112147020D01*
X101557760Y-112098760D01*
X101585700Y-112032720D01*
X101618720Y-111956520D01*
X101654280Y-111875240D01*
X101687300Y-111791420D01*
X101720320Y-111712680D01*
X101750800Y-111639020D01*
X101773660Y-111580600D01*
X101788900Y-111539960D01*
X101796520Y-111522180D01*
X101793980Y-111519640D01*
X101776200Y-111501860D01*
X101743180Y-111476460D01*
X101672060Y-111418040D01*
X101600940Y-111331680D01*
X101557760Y-111232620D01*
X101545060Y-111120860D01*
X101555220Y-111019260D01*
X101595860Y-110922740D01*
X101664440Y-110833840D01*
X101748260Y-110767800D01*
X101844780Y-110727160D01*
X101954000Y-110714460D01*
X102058140Y-110724620D01*
X102157200Y-110765260D01*
X102246100Y-110831300D01*
X102284200Y-110874480D01*
X102335000Y-110965920D01*
X102365480Y-111059900D01*
X102368020Y-111082760D01*
X102362940Y-111189440D01*
X102332460Y-111291040D01*
X102276580Y-111379940D01*
X102200380Y-111453600D01*
X102190220Y-111461220D01*
X102154660Y-111489160D01*
X102129260Y-111506940D01*
X102111480Y-111522180D01*
X102246100Y-111844760D01*
X102266420Y-111895560D01*
X102304520Y-111984460D01*
X102335000Y-112060660D01*
X102362940Y-112121620D01*
X102380720Y-112162260D01*
X102388340Y-112177500D01*
X102388340Y-112177500D01*
X102401040Y-112180040D01*
X102423900Y-112172420D01*
X102469620Y-112149560D01*
X102500100Y-112134320D01*
X102533120Y-112119080D01*
X102548360Y-112111460D01*
X102563600Y-112119080D01*
X102596620Y-112139400D01*
X102642340Y-112172420D01*
X102700760Y-112210520D01*
X102756640Y-112248620D01*
X102807440Y-112281640D01*
X102843000Y-112307040D01*
X102860780Y-112314660D01*
X102863320Y-112314660D01*
X102881100Y-112307040D01*
X102909040Y-112281640D01*
X102952220Y-112241000D01*
X103015720Y-112180040D01*
X103025880Y-112169880D01*
X103076680Y-112119080D01*
X103117320Y-112073360D01*
X103145260Y-112042880D01*
X103155420Y-112030180D01*
X103155420Y-112030180D01*
X103145260Y-112012400D01*
X103122400Y-111974300D01*
X103089380Y-111923500D01*
X103048740Y-111862540D01*
X102942060Y-111707600D01*
X103000480Y-111562820D01*
X103018260Y-111517100D01*
X103041120Y-111461220D01*
X103058900Y-111423120D01*
X103066520Y-111405340D01*
X103084300Y-111400260D01*
X103122400Y-111390100D01*
X103180820Y-111379940D01*
X103251940Y-111367240D01*
X103317980Y-111354540D01*
X103376400Y-111341840D01*
X103419580Y-111334220D01*
X103439900Y-111331680D01*
X103444980Y-111326600D01*
X103447520Y-111318980D01*
X103450060Y-111298660D01*
X103452600Y-111260560D01*
X103452600Y-111204680D01*
X103452600Y-111120860D01*
X103452600Y-111113240D01*
X103452600Y-111034500D01*
X103450060Y-110971000D01*
X103447520Y-110932900D01*
X103444980Y-110915120D01*
X103444980Y-110915120D01*
X103427200Y-110910040D01*
X103384020Y-110902420D01*
X103325600Y-110889720D01*
X103254480Y-110877020D01*
X103249400Y-110877020D01*
X103178280Y-110861780D01*
X103119860Y-110849080D01*
X103076680Y-110841460D01*
X103058900Y-110833840D01*
X103056360Y-110828760D01*
X103041120Y-110800820D01*
X103020800Y-110757640D01*
X102997940Y-110704300D01*
X102975080Y-110648420D01*
X102954760Y-110597620D01*
X102942060Y-110562060D01*
X102936980Y-110544280D01*
X102936980Y-110544280D01*
X102947140Y-110526500D01*
X102972540Y-110490940D01*
X103008100Y-110440140D01*
X103048740Y-110379180D01*
X103051280Y-110374100D01*
X103091920Y-110313140D01*
X103124940Y-110262340D01*
X103147800Y-110226780D01*
X103155420Y-110211540D01*
X103155420Y-110209000D01*
X103142720Y-110191220D01*
X103112240Y-110158200D01*
X103066520Y-110112480D01*
X103015720Y-110059140D01*
X102997940Y-110043900D01*
X102939520Y-109985480D01*
X102898880Y-109949920D01*
X102873480Y-109929600D01*
X102863320Y-109924520D01*
X102860780Y-109924520D01*
X102843000Y-109934680D01*
X102804900Y-109960080D01*
X102754100Y-109995640D01*
X102693140Y-110036280D01*
X102690600Y-110038820D01*
X102629640Y-110079460D01*
X102578840Y-110115020D01*
X102543280Y-110137880D01*
X102528040Y-110145500D01*
X102525500Y-110145500D01*
X102502640Y-110140420D01*
X102459460Y-110125180D01*
X102406120Y-110104860D01*
X102350240Y-110082000D01*
X102299440Y-110061680D01*
X102263880Y-110043900D01*
X102246100Y-110033740D01*
X102243560Y-110033740D01*
X102238480Y-110010880D01*
X102228320Y-109965160D01*
X102215620Y-109904200D01*
X102200380Y-109830540D01*
X102197840Y-109820380D01*
X102185140Y-109746720D01*
X102174980Y-109688300D01*
X102164820Y-109647660D01*
X102162280Y-109629880D01*
X102152120Y-109629880D01*
X102116560Y-109627340D01*
X102063220Y-109624800D01*
X101997180Y-109624800D01*
X101931140Y-109624800D01*
X101865100Y-109624800D01*
X101809220Y-109627340D01*
X101768580Y-109629880D01*
X101750800Y-109634960D01*
X101750800Y-109634960D01*
X101745720Y-109657820D01*
X101735560Y-109701000D01*
X101722860Y-109764500D01*
X101707620Y-109838160D01*
X101705080Y-109850860D01*
X101692380Y-109921980D01*
X101679680Y-109980400D01*
X101672060Y-110021040D01*
X101666980Y-110036280D01*
X101661900Y-110038820D01*
X101631420Y-110054060D01*
X101583160Y-110071840D01*
X101524740Y-110097240D01*
X101387580Y-110153120D01*
X101219940Y-110036280D01*
X101204700Y-110026120D01*
X101143740Y-109985480D01*
X101092940Y-109952460D01*
X101057380Y-109929600D01*
X101044680Y-109921980D01*
X101042140Y-109921980D01*
X101026900Y-109937220D01*
X100993880Y-109967700D01*
X100948160Y-110013420D01*
X100894820Y-110064220D01*
X100854180Y-110104860D01*
X100808460Y-110150580D01*
X100780520Y-110183600D01*
X100762740Y-110203920D01*
X100757660Y-110216620D01*
X100760200Y-110224240D01*
X100770360Y-110242020D01*
X100795760Y-110277580D01*
X100828780Y-110330920D01*
X100869420Y-110389340D01*
X100904980Y-110440140D01*
X100940540Y-110496020D01*
X100963400Y-110536660D01*
X100973560Y-110554440D01*
X100971020Y-110564600D01*
X100958320Y-110597620D01*
X100938000Y-110645880D01*
X100912600Y-110706840D01*
X100854180Y-110838920D01*
X100767820Y-110856700D01*
X100714480Y-110866860D01*
X100640820Y-110879560D01*
X100569700Y-110894800D01*
X100457940Y-110915120D01*
X100455400Y-111318980D01*
X100473180Y-111326600D01*
X100488420Y-111331680D01*
X100529060Y-111341840D01*
X100587480Y-111352000D01*
X100656060Y-111364700D01*
X100717020Y-111377400D01*
X100775440Y-111387560D01*
X100818620Y-111395180D01*
X100836400Y-111400260D01*
X100841480Y-111405340D01*
X100856720Y-111435820D01*
X100877040Y-111481540D01*
X100899900Y-111534880D01*
X100925300Y-111593300D01*
X100945620Y-111644100D01*
X100960860Y-111684740D01*
X100965940Y-111705060D01*
X100958320Y-111720300D01*
X100935460Y-111755860D01*
X100902440Y-111806660D01*
X100861800Y-111865080D01*
X100821160Y-111923500D01*
X100788140Y-111974300D01*
X100762740Y-112009860D01*
X100755120Y-112027640D01*
X100760200Y-112037800D01*
X100783060Y-112065740D01*
X100826240Y-112111460D01*
X100892280Y-112177500D01*
X100904980Y-112187660D01*
X100955780Y-112238460D01*
X101001500Y-112279100D01*
X101031980Y-112307040D01*
X101044680Y-112317200D01*
X101044680Y-112317200D01*
G37*
X101044680Y-112317200D02*
X101062460Y-112309580D01*
X101095480Y-112286720D01*
X101146280Y-112253700D01*
X101204700Y-112215600D01*
X101265660Y-112174960D01*
X101313920Y-112141940D01*
X101349480Y-112119080D01*
X101362180Y-112111460D01*
X101369800Y-112114000D01*
X101397740Y-112129240D01*
X101438380Y-112149560D01*
X101463780Y-112162260D01*
X101501880Y-112177500D01*
X101519660Y-112182580D01*
X101522200Y-112177500D01*
X101537440Y-112147020D01*
X101557760Y-112098760D01*
X101585700Y-112032720D01*
X101618720Y-111956520D01*
X101654280Y-111875240D01*
X101687300Y-111791420D01*
X101720320Y-111712680D01*
X101750800Y-111639020D01*
X101773660Y-111580600D01*
X101788900Y-111539960D01*
X101796520Y-111522180D01*
X101793980Y-111519640D01*
X101776200Y-111501860D01*
X101743180Y-111476460D01*
X101672060Y-111418040D01*
X101600940Y-111331680D01*
X101557760Y-111232620D01*
X101545060Y-111120860D01*
X101555220Y-111019260D01*
X101595860Y-110922740D01*
X101664440Y-110833840D01*
X101748260Y-110767800D01*
X101844780Y-110727160D01*
X101954000Y-110714460D01*
X102058140Y-110724620D01*
X102157200Y-110765260D01*
X102246100Y-110831300D01*
X102284200Y-110874480D01*
X102335000Y-110965920D01*
X102365480Y-111059900D01*
X102368020Y-111082760D01*
X102362940Y-111189440D01*
X102332460Y-111291040D01*
X102276580Y-111379940D01*
X102200380Y-111453600D01*
X102190220Y-111461220D01*
X102154660Y-111489160D01*
X102129260Y-111506940D01*
X102111480Y-111522180D01*
X102246100Y-111844760D01*
X102266420Y-111895560D01*
X102304520Y-111984460D01*
X102335000Y-112060660D01*
X102362940Y-112121620D01*
X102380720Y-112162260D01*
X102388340Y-112177500D01*
X102388340Y-112177500D01*
X102401040Y-112180040D01*
X102423900Y-112172420D01*
X102469620Y-112149560D01*
X102500100Y-112134320D01*
X102533120Y-112119080D01*
X102548360Y-112111460D01*
X102563600Y-112119080D01*
X102596620Y-112139400D01*
X102642340Y-112172420D01*
X102700760Y-112210520D01*
X102756640Y-112248620D01*
X102807440Y-112281640D01*
X102843000Y-112307040D01*
X102860780Y-112314660D01*
X102863320Y-112314660D01*
X102881100Y-112307040D01*
X102909040Y-112281640D01*
X102952220Y-112241000D01*
X103015720Y-112180040D01*
X103025880Y-112169880D01*
X103076680Y-112119080D01*
X103117320Y-112073360D01*
X103145260Y-112042880D01*
X103155420Y-112030180D01*
X103155420Y-112030180D01*
X103145260Y-112012400D01*
X103122400Y-111974300D01*
X103089380Y-111923500D01*
X103048740Y-111862540D01*
X102942060Y-111707600D01*
X103000480Y-111562820D01*
X103018260Y-111517100D01*
X103041120Y-111461220D01*
X103058900Y-111423120D01*
X103066520Y-111405340D01*
X103084300Y-111400260D01*
X103122400Y-111390100D01*
X103180820Y-111379940D01*
X103251940Y-111367240D01*
X103317980Y-111354540D01*
X103376400Y-111341840D01*
X103419580Y-111334220D01*
X103439900Y-111331680D01*
X103444980Y-111326600D01*
X103447520Y-111318980D01*
X103450060Y-111298660D01*
X103452600Y-111260560D01*
X103452600Y-111204680D01*
X103452600Y-111120860D01*
X103452600Y-111113240D01*
X103452600Y-111034500D01*
X103450060Y-110971000D01*
X103447520Y-110932900D01*
X103444980Y-110915120D01*
X103444980Y-110915120D01*
X103427200Y-110910040D01*
X103384020Y-110902420D01*
X103325600Y-110889720D01*
X103254480Y-110877020D01*
X103249400Y-110877020D01*
X103178280Y-110861780D01*
X103119860Y-110849080D01*
X103076680Y-110841460D01*
X103058900Y-110833840D01*
X103056360Y-110828760D01*
X103041120Y-110800820D01*
X103020800Y-110757640D01*
X102997940Y-110704300D01*
X102975080Y-110648420D01*
X102954760Y-110597620D01*
X102942060Y-110562060D01*
X102936980Y-110544280D01*
X102936980Y-110544280D01*
X102947140Y-110526500D01*
X102972540Y-110490940D01*
X103008100Y-110440140D01*
X103048740Y-110379180D01*
X103051280Y-110374100D01*
X103091920Y-110313140D01*
X103124940Y-110262340D01*
X103147800Y-110226780D01*
X103155420Y-110211540D01*
X103155420Y-110209000D01*
X103142720Y-110191220D01*
X103112240Y-110158200D01*
X103066520Y-110112480D01*
X103015720Y-110059140D01*
X102997940Y-110043900D01*
X102939520Y-109985480D01*
X102898880Y-109949920D01*
X102873480Y-109929600D01*
X102863320Y-109924520D01*
X102860780Y-109924520D01*
X102843000Y-109934680D01*
X102804900Y-109960080D01*
X102754100Y-109995640D01*
X102693140Y-110036280D01*
X102690600Y-110038820D01*
X102629640Y-110079460D01*
X102578840Y-110115020D01*
X102543280Y-110137880D01*
X102528040Y-110145500D01*
X102525500Y-110145500D01*
X102502640Y-110140420D01*
X102459460Y-110125180D01*
X102406120Y-110104860D01*
X102350240Y-110082000D01*
X102299440Y-110061680D01*
X102263880Y-110043900D01*
X102246100Y-110033740D01*
X102243560Y-110033740D01*
X102238480Y-110010880D01*
X102228320Y-109965160D01*
X102215620Y-109904200D01*
X102200380Y-109830540D01*
X102197840Y-109820380D01*
X102185140Y-109746720D01*
X102174980Y-109688300D01*
X102164820Y-109647660D01*
X102162280Y-109629880D01*
X102152120Y-109629880D01*
X102116560Y-109627340D01*
X102063220Y-109624800D01*
X101997180Y-109624800D01*
X101931140Y-109624800D01*
X101865100Y-109624800D01*
X101809220Y-109627340D01*
X101768580Y-109629880D01*
X101750800Y-109634960D01*
X101750800Y-109634960D01*
X101745720Y-109657820D01*
X101735560Y-109701000D01*
X101722860Y-109764500D01*
X101707620Y-109838160D01*
X101705080Y-109850860D01*
X101692380Y-109921980D01*
X101679680Y-109980400D01*
X101672060Y-110021040D01*
X101666980Y-110036280D01*
X101661900Y-110038820D01*
X101631420Y-110054060D01*
X101583160Y-110071840D01*
X101524740Y-110097240D01*
X101387580Y-110153120D01*
X101219940Y-110036280D01*
X101204700Y-110026120D01*
X101143740Y-109985480D01*
X101092940Y-109952460D01*
X101057380Y-109929600D01*
X101044680Y-109921980D01*
X101042140Y-109921980D01*
X101026900Y-109937220D01*
X100993880Y-109967700D01*
X100948160Y-110013420D01*
X100894820Y-110064220D01*
X100854180Y-110104860D01*
X100808460Y-110150580D01*
X100780520Y-110183600D01*
X100762740Y-110203920D01*
X100757660Y-110216620D01*
X100760200Y-110224240D01*
X100770360Y-110242020D01*
X100795760Y-110277580D01*
X100828780Y-110330920D01*
X100869420Y-110389340D01*
X100904980Y-110440140D01*
X100940540Y-110496020D01*
X100963400Y-110536660D01*
X100973560Y-110554440D01*
X100971020Y-110564600D01*
X100958320Y-110597620D01*
X100938000Y-110645880D01*
X100912600Y-110706840D01*
X100854180Y-110838920D01*
X100767820Y-110856700D01*
X100714480Y-110866860D01*
X100640820Y-110879560D01*
X100569700Y-110894800D01*
X100457940Y-110915120D01*
X100455400Y-111318980D01*
X100473180Y-111326600D01*
X100488420Y-111331680D01*
X100529060Y-111341840D01*
X100587480Y-111352000D01*
X100656060Y-111364700D01*
X100717020Y-111377400D01*
X100775440Y-111387560D01*
X100818620Y-111395180D01*
X100836400Y-111400260D01*
X100841480Y-111405340D01*
X100856720Y-111435820D01*
X100877040Y-111481540D01*
X100899900Y-111534880D01*
X100925300Y-111593300D01*
X100945620Y-111644100D01*
X100960860Y-111684740D01*
X100965940Y-111705060D01*
X100958320Y-111720300D01*
X100935460Y-111755860D01*
X100902440Y-111806660D01*
X100861800Y-111865080D01*
X100821160Y-111923500D01*
X100788140Y-111974300D01*
X100762740Y-112009860D01*
X100755120Y-112027640D01*
X100760200Y-112037800D01*
X100783060Y-112065740D01*
X100826240Y-112111460D01*
X100892280Y-112177500D01*
X100904980Y-112187660D01*
X100955780Y-112238460D01*
X101001500Y-112279100D01*
X101031980Y-112307040D01*
X101044680Y-112317200D01*
D10*
X128500000Y-102850000D02*
X128500000Y-102150000D01*
X129700000Y-102150000D02*
X129700000Y-102850000D01*
X122800000Y-102850000D02*
X122800000Y-102150000D01*
X124000000Y-102150000D02*
X124000000Y-102850000D01*
X111600000Y-102850000D02*
X111600000Y-102150000D01*
X112800000Y-102150000D02*
X112800000Y-102850000D01*
X113200000Y-102850000D02*
X113200000Y-102150000D01*
X114400000Y-102150000D02*
X114400000Y-102850000D01*
X102300000Y-106430000D02*
X102300000Y-107130000D01*
X101100000Y-107130000D02*
X101100000Y-106430000D01*
X107634000Y-106430000D02*
X107634000Y-107130000D01*
X106434000Y-107130000D02*
X106434000Y-106430000D01*
X114800000Y-102850000D02*
X114800000Y-102150000D01*
X116000000Y-102150000D02*
X116000000Y-102850000D01*
X102100000Y-100700000D02*
X102100000Y-99500000D01*
X102100000Y-104000000D02*
X102100000Y-102300000D01*
X109500000Y-100700000D02*
X109500000Y-99500000D01*
X109500000Y-102300000D02*
X109500000Y-104000000D01*
X102600000Y-104500000D02*
X104150000Y-104500000D01*
X109000000Y-104500000D02*
X107450000Y-104500000D01*
X109000000Y-104500000D02*
G75*
G03X109500000Y-104000000I0J500000D01*
G01*
X102100000Y-104000000D02*
G75*
G03X102600000Y-104500000I500000J0D01*
G01*
X109500000Y-100000000D02*
X102100000Y-100000000D01*
X109483000Y-99468000D02*
X102117000Y-99468000D01*
X102100000Y-99500000D02*
X101750000Y-98870000D01*
X101750000Y-98870000D02*
X109850000Y-98870000D01*
X109850000Y-98870000D02*
X109500000Y-99500000D01*
D16*
X137486000Y-110590000D02*
G75*
G03X137486000Y-110590000I-1750000J0D01*
G01*
X138836000Y-113690000D02*
X132636000Y-113690000D01*
X132636000Y-113690000D02*
X132636000Y-107490000D01*
X132636000Y-107490000D02*
X138836000Y-107490000D01*
X138836000Y-113690000D02*
X138836000Y-107490000D01*
D10*
X127980000Y-110780000D02*
X127980000Y-108240000D01*
X127700000Y-113600000D02*
X127700000Y-112050000D01*
X127980000Y-110780000D02*
X130520000Y-110780000D01*
X130800000Y-112050000D02*
X130800000Y-113600000D01*
X130800000Y-113600000D02*
X127700000Y-113600000D01*
X130520000Y-110780000D02*
X130520000Y-108240000D01*
X130520000Y-108240000D02*
X127980000Y-108240000D01*
X132800000Y-106175000D02*
X131800000Y-106175000D01*
X131800000Y-104825000D02*
X132800000Y-104825000D01*
X128800000Y-104825000D02*
X129800000Y-104825000D01*
X129800000Y-106175000D02*
X128800000Y-106175000D01*
X122475000Y-102000000D02*
X122475000Y-103000000D01*
X121125000Y-103000000D02*
X121125000Y-102000000D01*
X117875000Y-102000000D02*
X117875000Y-103000000D01*
X116525000Y-103000000D02*
X116525000Y-102000000D01*
X135800000Y-106175000D02*
X134800000Y-106175000D01*
X134800000Y-104825000D02*
X135800000Y-104825000D01*
X138800000Y-106175000D02*
X137800000Y-106175000D01*
X137800000Y-104825000D02*
X138800000Y-104825000D01*
X105169000Y-110598000D02*
X105169000Y-111598000D01*
X103819000Y-111598000D02*
X103819000Y-110598000D01*
X106232000Y-111598000D02*
X106232000Y-110598000D01*
X107582000Y-110598000D02*
X107582000Y-111598000D01*
X104581000Y-107280000D02*
X104581000Y-106280000D01*
X105931000Y-106280000D02*
X105931000Y-107280000D01*
X102803000Y-107280000D02*
X102803000Y-106280000D01*
X104153000Y-106280000D02*
X104153000Y-107280000D01*
X109487000Y-106280000D02*
X109487000Y-107280000D01*
X108137000Y-107280000D02*
X108137000Y-106280000D01*
X131600000Y-102850000D02*
X131600000Y-101400000D01*
X130400000Y-102850000D02*
X130400000Y-101400000D01*
X130241623Y-101510000D02*
G75*
G03X130241623Y-101510000I-31623J0D01*
G01*
X132000000Y-101400000D02*
X132000000Y-102850000D01*
X133200000Y-101400000D02*
X133200000Y-102850000D01*
X131841623Y-101510000D02*
G75*
G03X131841623Y-101510000I-31623J0D01*
G01*
X119300000Y-102150000D02*
X119300000Y-103600000D01*
X118100000Y-102150000D02*
X118100000Y-103600000D01*
X119521623Y-103490000D02*
G75*
G03X119521623Y-103490000I-31623J0D01*
G01*
X120900000Y-102150000D02*
X120900000Y-103600000D01*
X119700000Y-102150000D02*
X119700000Y-103600000D01*
X121121623Y-103490000D02*
G75*
G03X121121623Y-103490000I-31623J0D01*
G01*
X125400000Y-102200000D02*
X125400000Y-102800000D01*
X127000000Y-103150000D02*
X127000000Y-103950000D01*
X127000000Y-103950000D02*
X125900000Y-103950000D01*
X127000000Y-101850000D02*
X127000000Y-101050000D01*
X127000000Y-101050000D02*
X125900000Y-101050000D01*
X136300000Y-102800000D02*
X136300000Y-102200000D01*
X134700000Y-101850000D02*
X134700000Y-101050000D01*
X134700000Y-101050000D02*
X135800000Y-101050000D01*
X134700000Y-103150000D02*
X134700000Y-103950000D01*
X134700000Y-103950000D02*
X135800000Y-103950000D01*
X119029300Y-109770000D02*
X120929300Y-109770000D01*
X119029300Y-108670000D02*
X120929300Y-108670000D01*
X119929300Y-109220000D02*
X120379300Y-109220000D01*
X119879300Y-108970000D02*
X119879300Y-109470000D01*
X119879300Y-109220000D02*
X120129300Y-108970000D01*
X120129300Y-108970000D02*
X120129300Y-109470000D01*
X120129300Y-109470000D02*
X119879300Y-109220000D01*
X123170000Y-106085000D02*
X122170000Y-106085000D01*
X122170000Y-104735000D02*
X123170000Y-104735000D01*
X118016667Y-108933333D02*
X118583333Y-108933333D01*
X118650000Y-108900000D01*
X118683333Y-108866667D01*
X118716667Y-108800000D01*
X118716667Y-108666667D01*
X118683333Y-108600000D01*
X118650000Y-108566667D01*
X118583333Y-108533333D01*
X118016667Y-108533333D01*
X118083333Y-108233334D02*
X118050000Y-108200000D01*
X118016667Y-108133334D01*
X118016667Y-107966667D01*
X118050000Y-107900000D01*
X118083333Y-107866667D01*
X118150000Y-107833334D01*
X118216667Y-107833334D01*
X118316667Y-107866667D01*
X118716667Y-108266667D01*
X118716667Y-107833334D01*
X128983334Y-104450000D02*
X128950000Y-104483333D01*
X128850000Y-104516667D01*
X128783334Y-104516667D01*
X128683334Y-104483333D01*
X128616667Y-104416667D01*
X128583334Y-104350000D01*
X128550000Y-104216667D01*
X128550000Y-104116667D01*
X128583334Y-103983333D01*
X128616667Y-103916667D01*
X128683334Y-103850000D01*
X128783334Y-103816667D01*
X128850000Y-103816667D01*
X128950000Y-103850000D01*
X128983334Y-103883333D01*
X129650000Y-104516667D02*
X129250000Y-104516667D01*
X129450000Y-104516667D02*
X129450000Y-103816667D01*
X129383334Y-103916667D01*
X129316667Y-103983333D01*
X129250000Y-104016667D01*
X123413334Y-104470000D02*
X123380000Y-104503333D01*
X123280000Y-104536667D01*
X123213334Y-104536667D01*
X123113334Y-104503333D01*
X123046667Y-104436667D01*
X123013334Y-104370000D01*
X122980000Y-104236667D01*
X122980000Y-104136667D01*
X123013334Y-104003333D01*
X123046667Y-103936667D01*
X123113334Y-103870000D01*
X123213334Y-103836667D01*
X123280000Y-103836667D01*
X123380000Y-103870000D01*
X123413334Y-103903333D01*
X123680000Y-103903333D02*
X123713334Y-103870000D01*
X123780000Y-103836667D01*
X123946667Y-103836667D01*
X124013334Y-103870000D01*
X124046667Y-103903333D01*
X124080000Y-103970000D01*
X124080000Y-104036667D01*
X124046667Y-104136667D01*
X123646667Y-104536667D01*
X124080000Y-104536667D01*
X112083334Y-101100000D02*
X112050000Y-101133333D01*
X111950000Y-101166667D01*
X111883334Y-101166667D01*
X111783334Y-101133333D01*
X111716667Y-101066667D01*
X111683334Y-101000000D01*
X111650000Y-100866667D01*
X111650000Y-100766667D01*
X111683334Y-100633333D01*
X111716667Y-100566667D01*
X111783334Y-100500000D01*
X111883334Y-100466667D01*
X111950000Y-100466667D01*
X112050000Y-100500000D01*
X112083334Y-100533333D01*
X112316667Y-100466667D02*
X112750000Y-100466667D01*
X112516667Y-100733333D01*
X112616667Y-100733333D01*
X112683334Y-100766667D01*
X112716667Y-100800000D01*
X112750000Y-100866667D01*
X112750000Y-101033333D01*
X112716667Y-101100000D01*
X112683334Y-101133333D01*
X112616667Y-101166667D01*
X112416667Y-101166667D01*
X112350000Y-101133333D01*
X112316667Y-101100000D01*
X113683334Y-101090000D02*
X113650000Y-101123333D01*
X113550000Y-101156667D01*
X113483334Y-101156667D01*
X113383334Y-101123333D01*
X113316667Y-101056667D01*
X113283334Y-100990000D01*
X113250000Y-100856667D01*
X113250000Y-100756667D01*
X113283334Y-100623333D01*
X113316667Y-100556667D01*
X113383334Y-100490000D01*
X113483334Y-100456667D01*
X113550000Y-100456667D01*
X113650000Y-100490000D01*
X113683334Y-100523333D01*
X114283334Y-100690000D02*
X114283334Y-101156667D01*
X114116667Y-100423333D02*
X113950000Y-100923333D01*
X114383334Y-100923333D01*
X101183334Y-108750000D02*
X101150000Y-108783333D01*
X101050000Y-108816667D01*
X100983334Y-108816667D01*
X100883334Y-108783333D01*
X100816667Y-108716667D01*
X100783334Y-108650000D01*
X100750000Y-108516667D01*
X100750000Y-108416667D01*
X100783334Y-108283333D01*
X100816667Y-108216667D01*
X100883334Y-108150000D01*
X100983334Y-108116667D01*
X101050000Y-108116667D01*
X101150000Y-108150000D01*
X101183334Y-108183333D01*
X101816667Y-108116667D02*
X101483334Y-108116667D01*
X101450000Y-108450000D01*
X101483334Y-108416667D01*
X101550000Y-108383333D01*
X101716667Y-108383333D01*
X101783334Y-108416667D01*
X101816667Y-108450000D01*
X101850000Y-108516667D01*
X101850000Y-108683333D01*
X101816667Y-108750000D01*
X101783334Y-108783333D01*
X101716667Y-108816667D01*
X101550000Y-108816667D01*
X101483334Y-108783333D01*
X101450000Y-108750000D01*
X107550000Y-108856666D02*
X107583333Y-108890000D01*
X107616667Y-108990000D01*
X107616667Y-109056666D01*
X107583333Y-109156666D01*
X107516667Y-109223333D01*
X107450000Y-109256666D01*
X107316667Y-109290000D01*
X107216667Y-109290000D01*
X107083333Y-109256666D01*
X107016667Y-109223333D01*
X106950000Y-109156666D01*
X106916667Y-109056666D01*
X106916667Y-108990000D01*
X106950000Y-108890000D01*
X106983333Y-108856666D01*
X106916667Y-108256666D02*
X106916667Y-108390000D01*
X106950000Y-108456666D01*
X106983333Y-108490000D01*
X107083333Y-108556666D01*
X107216667Y-108590000D01*
X107483333Y-108590000D01*
X107550000Y-108556666D01*
X107583333Y-108523333D01*
X107616667Y-108456666D01*
X107616667Y-108323333D01*
X107583333Y-108256666D01*
X107550000Y-108223333D01*
X107483333Y-108190000D01*
X107316667Y-108190000D01*
X107250000Y-108223333D01*
X107216667Y-108256666D01*
X107183333Y-108323333D01*
X107183333Y-108456666D01*
X107216667Y-108523333D01*
X107250000Y-108556666D01*
X107316667Y-108590000D01*
X115283334Y-101100000D02*
X115250000Y-101133333D01*
X115150000Y-101166667D01*
X115083334Y-101166667D01*
X114983334Y-101133333D01*
X114916667Y-101066667D01*
X114883334Y-101000000D01*
X114850000Y-100866667D01*
X114850000Y-100766667D01*
X114883334Y-100633333D01*
X114916667Y-100566667D01*
X114983334Y-100500000D01*
X115083334Y-100466667D01*
X115150000Y-100466667D01*
X115250000Y-100500000D01*
X115283334Y-100533333D01*
X115516667Y-100466667D02*
X115983334Y-100466667D01*
X115683334Y-101166667D01*
X110466667Y-103566666D02*
X109766667Y-103566666D01*
X109766667Y-103300000D01*
X109800000Y-103233333D01*
X109833333Y-103200000D01*
X109900000Y-103166666D01*
X110000000Y-103166666D01*
X110066667Y-103200000D01*
X110100000Y-103233333D01*
X110133333Y-103300000D01*
X110133333Y-103566666D01*
X110466667Y-102500000D02*
X110466667Y-102900000D01*
X110466667Y-102700000D02*
X109766667Y-102700000D01*
X109866667Y-102766666D01*
X109933333Y-102833333D01*
X109966667Y-102900000D01*
X139783333Y-111533334D02*
X139816667Y-111433334D01*
X139816667Y-111266667D01*
X139783333Y-111200000D01*
X139750000Y-111166667D01*
X139683333Y-111133334D01*
X139616667Y-111133334D01*
X139550000Y-111166667D01*
X139516667Y-111200000D01*
X139483333Y-111266667D01*
X139450000Y-111400000D01*
X139416667Y-111466667D01*
X139383333Y-111500000D01*
X139316667Y-111533334D01*
X139250000Y-111533334D01*
X139183333Y-111500000D01*
X139150000Y-111466667D01*
X139116667Y-111400000D01*
X139116667Y-111233334D01*
X139150000Y-111133334D01*
X139116667Y-110900000D02*
X139816667Y-110733333D01*
X139316667Y-110600000D01*
X139816667Y-110466667D01*
X139116667Y-110300000D01*
X139816667Y-109666667D02*
X139816667Y-110066667D01*
X139816667Y-109866667D02*
X139116667Y-109866667D01*
X139216667Y-109933333D01*
X139283333Y-110000000D01*
X139316667Y-110066667D01*
D13*
X132426190Y-110863809D02*
X132188095Y-111030476D01*
X132426190Y-111149523D02*
X131926190Y-111149523D01*
X131926190Y-110959047D01*
X131950000Y-110911428D01*
X131973810Y-110887619D01*
X132021429Y-110863809D01*
X132092857Y-110863809D01*
X132140476Y-110887619D01*
X132164286Y-110911428D01*
X132188095Y-110959047D01*
X132188095Y-111149523D01*
X132402381Y-110673333D02*
X132426190Y-110601904D01*
X132426190Y-110482857D01*
X132402381Y-110435238D01*
X132378571Y-110411428D01*
X132330952Y-110387619D01*
X132283333Y-110387619D01*
X132235714Y-110411428D01*
X132211905Y-110435238D01*
X132188095Y-110482857D01*
X132164286Y-110578095D01*
X132140476Y-110625714D01*
X132116667Y-110649523D01*
X132069048Y-110673333D01*
X132021429Y-110673333D01*
X131973810Y-110649523D01*
X131950000Y-110625714D01*
X131926190Y-110578095D01*
X131926190Y-110459047D01*
X131950000Y-110387619D01*
X131926190Y-110244762D02*
X131926190Y-109959048D01*
X132426190Y-110101905D02*
X131926190Y-110101905D01*
D10*
X120941667Y-109616667D02*
X120941667Y-110116667D01*
X120908333Y-110216667D01*
X120841667Y-110283333D01*
X120741667Y-110316667D01*
X120675000Y-110316667D01*
X121641666Y-110316667D02*
X121241666Y-110316667D01*
X121441666Y-110316667D02*
X121441666Y-109616667D01*
X121375000Y-109716667D01*
X121308333Y-109783333D01*
X121241666Y-109816667D01*
X129766667Y-107316667D02*
X129766667Y-107816667D01*
X129733333Y-107916667D01*
X129666667Y-107983333D01*
X129566667Y-108016667D01*
X129500000Y-108016667D01*
X130033333Y-107316667D02*
X130466666Y-107316667D01*
X130233333Y-107583333D01*
X130333333Y-107583333D01*
X130400000Y-107616667D01*
X130433333Y-107650000D01*
X130466666Y-107716667D01*
X130466666Y-107883333D01*
X130433333Y-107950000D01*
X130400000Y-107983333D01*
X130333333Y-108016667D01*
X130133333Y-108016667D01*
X130066666Y-107983333D01*
X130033333Y-107950000D01*
X131683334Y-107116667D02*
X131450000Y-106783333D01*
X131283334Y-107116667D02*
X131283334Y-106416667D01*
X131550000Y-106416667D01*
X131616667Y-106450000D01*
X131650000Y-106483333D01*
X131683334Y-106550000D01*
X131683334Y-106650000D01*
X131650000Y-106716667D01*
X131616667Y-106750000D01*
X131550000Y-106783333D01*
X131283334Y-106783333D01*
X132350000Y-107116667D02*
X131950000Y-107116667D01*
X132150000Y-107116667D02*
X132150000Y-106416667D01*
X132083334Y-106516667D01*
X132016667Y-106583333D01*
X131950000Y-106616667D01*
X128783334Y-107116667D02*
X128550000Y-106783333D01*
X128383334Y-107116667D02*
X128383334Y-106416667D01*
X128650000Y-106416667D01*
X128716667Y-106450000D01*
X128750000Y-106483333D01*
X128783334Y-106550000D01*
X128783334Y-106650000D01*
X128750000Y-106716667D01*
X128716667Y-106750000D01*
X128650000Y-106783333D01*
X128383334Y-106783333D01*
X129050000Y-106483333D02*
X129083334Y-106450000D01*
X129150000Y-106416667D01*
X129316667Y-106416667D01*
X129383334Y-106450000D01*
X129416667Y-106483333D01*
X129450000Y-106550000D01*
X129450000Y-106616667D01*
X129416667Y-106716667D01*
X129016667Y-107116667D01*
X129450000Y-107116667D01*
X122066667Y-104466666D02*
X121733333Y-104700000D01*
X122066667Y-104866666D02*
X121366667Y-104866666D01*
X121366667Y-104600000D01*
X121400000Y-104533333D01*
X121433333Y-104500000D01*
X121500000Y-104466666D01*
X121600000Y-104466666D01*
X121666667Y-104500000D01*
X121700000Y-104533333D01*
X121733333Y-104600000D01*
X121733333Y-104866666D01*
X121366667Y-104233333D02*
X121366667Y-103800000D01*
X121633333Y-104033333D01*
X121633333Y-103933333D01*
X121666667Y-103866666D01*
X121700000Y-103833333D01*
X121766667Y-103800000D01*
X121933333Y-103800000D01*
X122000000Y-103833333D01*
X122033333Y-103866666D01*
X122066667Y-103933333D01*
X122066667Y-104133333D01*
X122033333Y-104200000D01*
X122000000Y-104233333D01*
X117183334Y-104526667D02*
X116950000Y-104193333D01*
X116783334Y-104526667D02*
X116783334Y-103826667D01*
X117050000Y-103826667D01*
X117116667Y-103860000D01*
X117150000Y-103893333D01*
X117183334Y-103960000D01*
X117183334Y-104060000D01*
X117150000Y-104126667D01*
X117116667Y-104160000D01*
X117050000Y-104193333D01*
X116783334Y-104193333D01*
X117783334Y-104060000D02*
X117783334Y-104526667D01*
X117616667Y-103793333D02*
X117450000Y-104293333D01*
X117883334Y-104293333D01*
X134883334Y-107116667D02*
X134650000Y-106783333D01*
X134483334Y-107116667D02*
X134483334Y-106416667D01*
X134750000Y-106416667D01*
X134816667Y-106450000D01*
X134850000Y-106483333D01*
X134883334Y-106550000D01*
X134883334Y-106650000D01*
X134850000Y-106716667D01*
X134816667Y-106750000D01*
X134750000Y-106783333D01*
X134483334Y-106783333D01*
X135516667Y-106416667D02*
X135183334Y-106416667D01*
X135150000Y-106750000D01*
X135183334Y-106716667D01*
X135250000Y-106683333D01*
X135416667Y-106683333D01*
X135483334Y-106716667D01*
X135516667Y-106750000D01*
X135550000Y-106816667D01*
X135550000Y-106983333D01*
X135516667Y-107050000D01*
X135483334Y-107083333D01*
X135416667Y-107116667D01*
X135250000Y-107116667D01*
X135183334Y-107083333D01*
X135150000Y-107050000D01*
X137883334Y-107116667D02*
X137650000Y-106783333D01*
X137483334Y-107116667D02*
X137483334Y-106416667D01*
X137750000Y-106416667D01*
X137816667Y-106450000D01*
X137850000Y-106483333D01*
X137883334Y-106550000D01*
X137883334Y-106650000D01*
X137850000Y-106716667D01*
X137816667Y-106750000D01*
X137750000Y-106783333D01*
X137483334Y-106783333D01*
X138483334Y-106416667D02*
X138350000Y-106416667D01*
X138283334Y-106450000D01*
X138250000Y-106483333D01*
X138183334Y-106583333D01*
X138150000Y-106716667D01*
X138150000Y-106983333D01*
X138183334Y-107050000D01*
X138216667Y-107083333D01*
X138283334Y-107116667D01*
X138416667Y-107116667D01*
X138483334Y-107083333D01*
X138516667Y-107050000D01*
X138550000Y-106983333D01*
X138550000Y-106816667D01*
X138516667Y-106750000D01*
X138483334Y-106716667D01*
X138416667Y-106683333D01*
X138283334Y-106683333D01*
X138216667Y-106716667D01*
X138183334Y-106750000D01*
X138150000Y-106816667D01*
X104383334Y-113096667D02*
X104150000Y-112763333D01*
X103983334Y-113096667D02*
X103983334Y-112396667D01*
X104250000Y-112396667D01*
X104316667Y-112430000D01*
X104350000Y-112463333D01*
X104383334Y-112530000D01*
X104383334Y-112630000D01*
X104350000Y-112696667D01*
X104316667Y-112730000D01*
X104250000Y-112763333D01*
X103983334Y-112763333D01*
X104616667Y-112396667D02*
X105083334Y-112396667D01*
X104783334Y-113096667D01*
X106783334Y-113096667D02*
X106550000Y-112763333D01*
X106383334Y-113096667D02*
X106383334Y-112396667D01*
X106650000Y-112396667D01*
X106716667Y-112430000D01*
X106750000Y-112463333D01*
X106783334Y-112530000D01*
X106783334Y-112630000D01*
X106750000Y-112696667D01*
X106716667Y-112730000D01*
X106650000Y-112763333D01*
X106383334Y-112763333D01*
X107183334Y-112696667D02*
X107116667Y-112663333D01*
X107083334Y-112630000D01*
X107050000Y-112563333D01*
X107050000Y-112530000D01*
X107083334Y-112463333D01*
X107116667Y-112430000D01*
X107183334Y-112396667D01*
X107316667Y-112396667D01*
X107383334Y-112430000D01*
X107416667Y-112463333D01*
X107450000Y-112530000D01*
X107450000Y-112563333D01*
X107416667Y-112630000D01*
X107383334Y-112663333D01*
X107316667Y-112696667D01*
X107183334Y-112696667D01*
X107116667Y-112730000D01*
X107083334Y-112763333D01*
X107050000Y-112830000D01*
X107050000Y-112963333D01*
X107083334Y-113030000D01*
X107116667Y-113063333D01*
X107183334Y-113096667D01*
X107316667Y-113096667D01*
X107383334Y-113063333D01*
X107416667Y-113030000D01*
X107450000Y-112963333D01*
X107450000Y-112830000D01*
X107416667Y-112763333D01*
X107383334Y-112730000D01*
X107316667Y-112696667D01*
X105423334Y-108856667D02*
X105190000Y-108523333D01*
X105023334Y-108856667D02*
X105023334Y-108156667D01*
X105290000Y-108156667D01*
X105356667Y-108190000D01*
X105390000Y-108223333D01*
X105423334Y-108290000D01*
X105423334Y-108390000D01*
X105390000Y-108456667D01*
X105356667Y-108490000D01*
X105290000Y-108523333D01*
X105023334Y-108523333D01*
X105756667Y-108856667D02*
X105890000Y-108856667D01*
X105956667Y-108823333D01*
X105990000Y-108790000D01*
X106056667Y-108690000D01*
X106090000Y-108556667D01*
X106090000Y-108290000D01*
X106056667Y-108223333D01*
X106023334Y-108190000D01*
X105956667Y-108156667D01*
X105823334Y-108156667D01*
X105756667Y-108190000D01*
X105723334Y-108223333D01*
X105690000Y-108290000D01*
X105690000Y-108456667D01*
X105723334Y-108523333D01*
X105756667Y-108556667D01*
X105823334Y-108590000D01*
X105956667Y-108590000D01*
X106023334Y-108556667D01*
X106056667Y-108523333D01*
X106090000Y-108456667D01*
X102750000Y-108816667D02*
X102516666Y-108483333D01*
X102350000Y-108816667D02*
X102350000Y-108116667D01*
X102616666Y-108116667D01*
X102683333Y-108150000D01*
X102716666Y-108183333D01*
X102750000Y-108250000D01*
X102750000Y-108350000D01*
X102716666Y-108416667D01*
X102683333Y-108450000D01*
X102616666Y-108483333D01*
X102350000Y-108483333D01*
X103416666Y-108816667D02*
X103016666Y-108816667D01*
X103216666Y-108816667D02*
X103216666Y-108116667D01*
X103150000Y-108216667D01*
X103083333Y-108283333D01*
X103016666Y-108316667D01*
X103850000Y-108116667D02*
X103916667Y-108116667D01*
X103983333Y-108150000D01*
X104016667Y-108183333D01*
X104050000Y-108250000D01*
X104083333Y-108383333D01*
X104083333Y-108550000D01*
X104050000Y-108683333D01*
X104016667Y-108750000D01*
X103983333Y-108783333D01*
X103916667Y-108816667D01*
X103850000Y-108816667D01*
X103783333Y-108783333D01*
X103750000Y-108750000D01*
X103716667Y-108683333D01*
X103683333Y-108550000D01*
X103683333Y-108383333D01*
X103716667Y-108250000D01*
X103750000Y-108183333D01*
X103783333Y-108150000D01*
X103850000Y-108116667D01*
X110406667Y-107190000D02*
X110073333Y-107423334D01*
X110406667Y-107590000D02*
X109706667Y-107590000D01*
X109706667Y-107323334D01*
X109740000Y-107256667D01*
X109773333Y-107223334D01*
X109840000Y-107190000D01*
X109940000Y-107190000D01*
X110006667Y-107223334D01*
X110040000Y-107256667D01*
X110073333Y-107323334D01*
X110073333Y-107590000D01*
X110406667Y-106523334D02*
X110406667Y-106923334D01*
X110406667Y-106723334D02*
X109706667Y-106723334D01*
X109806667Y-106790000D01*
X109873333Y-106856667D01*
X109906667Y-106923334D01*
X110406667Y-105856667D02*
X110406667Y-106256667D01*
X110406667Y-106056667D02*
X109706667Y-106056667D01*
X109806667Y-106123333D01*
X109873333Y-106190000D01*
X109906667Y-106256667D01*
X130483334Y-104516667D02*
X130483334Y-103816667D01*
X130650000Y-103816667D01*
X130750000Y-103850000D01*
X130816667Y-103916667D01*
X130850000Y-103983333D01*
X130883334Y-104116667D01*
X130883334Y-104216667D01*
X130850000Y-104350000D01*
X130816667Y-104416667D01*
X130750000Y-104483333D01*
X130650000Y-104516667D01*
X130483334Y-104516667D01*
X131150000Y-103883333D02*
X131183334Y-103850000D01*
X131250000Y-103816667D01*
X131416667Y-103816667D01*
X131483334Y-103850000D01*
X131516667Y-103883333D01*
X131550000Y-103950000D01*
X131550000Y-104016667D01*
X131516667Y-104116667D01*
X131116667Y-104516667D01*
X131550000Y-104516667D01*
D13*
X129907144Y-100835714D02*
X130288096Y-100835714D01*
X130097620Y-101026190D02*
X130097620Y-100645238D01*
X130764287Y-100526190D02*
X130526192Y-100526190D01*
X130502382Y-100764286D01*
X130526192Y-100740476D01*
X130573811Y-100716667D01*
X130692858Y-100716667D01*
X130740477Y-100740476D01*
X130764287Y-100764286D01*
X130788096Y-100811905D01*
X130788096Y-100930952D01*
X130764287Y-100978571D01*
X130740477Y-101002381D01*
X130692858Y-101026190D01*
X130573811Y-101026190D01*
X130526192Y-101002381D01*
X130502382Y-100978571D01*
X130930953Y-100526190D02*
X131097620Y-101026190D01*
X131264286Y-100526190D01*
D10*
X132183334Y-104516667D02*
X132183334Y-103816667D01*
X132350000Y-103816667D01*
X132450000Y-103850000D01*
X132516667Y-103916667D01*
X132550000Y-103983333D01*
X132583334Y-104116667D01*
X132583334Y-104216667D01*
X132550000Y-104350000D01*
X132516667Y-104416667D01*
X132450000Y-104483333D01*
X132350000Y-104516667D01*
X132183334Y-104516667D01*
X133250000Y-104516667D02*
X132850000Y-104516667D01*
X133050000Y-104516667D02*
X133050000Y-103816667D01*
X132983334Y-103916667D01*
X132916667Y-103983333D01*
X132850000Y-104016667D01*
D13*
X132142858Y-100526190D02*
X132142858Y-100930952D01*
X132166667Y-100978571D01*
X132190477Y-101002381D01*
X132238096Y-101026190D01*
X132333334Y-101026190D01*
X132380953Y-101002381D01*
X132404762Y-100978571D01*
X132428572Y-100930952D01*
X132428572Y-100526190D01*
X132642858Y-101002381D02*
X132714287Y-101026190D01*
X132833334Y-101026190D01*
X132880953Y-101002381D01*
X132904763Y-100978571D01*
X132928572Y-100930952D01*
X132928572Y-100883333D01*
X132904763Y-100835714D01*
X132880953Y-100811905D01*
X132833334Y-100788095D01*
X132738096Y-100764286D01*
X132690477Y-100740476D01*
X132666668Y-100716667D01*
X132642858Y-100669048D01*
X132642858Y-100621429D01*
X132666668Y-100573810D01*
X132690477Y-100550000D01*
X132738096Y-100526190D01*
X132857144Y-100526190D01*
X132928572Y-100550000D01*
X133142858Y-100764286D02*
X133309524Y-100764286D01*
X133380953Y-101026190D02*
X133142858Y-101026190D01*
X133142858Y-100526190D01*
X133380953Y-100526190D01*
X133880953Y-101026190D02*
X133714286Y-100788095D01*
X133595239Y-101026190D02*
X133595239Y-100526190D01*
X133785715Y-100526190D01*
X133833334Y-100550000D01*
X133857143Y-100573810D01*
X133880953Y-100621429D01*
X133880953Y-100692857D01*
X133857143Y-100740476D01*
X133833334Y-100764286D01*
X133785715Y-100788095D01*
X133595239Y-100788095D01*
D10*
X118183334Y-104536667D02*
X118183334Y-103836667D01*
X118350000Y-103836667D01*
X118450000Y-103870000D01*
X118516667Y-103936667D01*
X118550000Y-104003333D01*
X118583334Y-104136667D01*
X118583334Y-104236667D01*
X118550000Y-104370000D01*
X118516667Y-104436667D01*
X118450000Y-104503333D01*
X118350000Y-104536667D01*
X118183334Y-104536667D01*
X119183334Y-104070000D02*
X119183334Y-104536667D01*
X119016667Y-103803333D02*
X118850000Y-104303333D01*
X119283334Y-104303333D01*
D13*
X118319048Y-100666190D02*
X118604762Y-100666190D01*
X118461905Y-101166190D02*
X118461905Y-100666190D01*
X118723810Y-100666190D02*
X119057143Y-101166190D01*
X119057143Y-100666190D02*
X118723810Y-101166190D01*
D10*
X119783334Y-104536667D02*
X119783334Y-103836667D01*
X119950000Y-103836667D01*
X120050000Y-103870000D01*
X120116667Y-103936667D01*
X120150000Y-104003333D01*
X120183334Y-104136667D01*
X120183334Y-104236667D01*
X120150000Y-104370000D01*
X120116667Y-104436667D01*
X120050000Y-104503333D01*
X119950000Y-104536667D01*
X119783334Y-104536667D01*
X120416667Y-103836667D02*
X120850000Y-103836667D01*
X120616667Y-104103333D01*
X120716667Y-104103333D01*
X120783334Y-104136667D01*
X120816667Y-104170000D01*
X120850000Y-104236667D01*
X120850000Y-104403333D01*
X120816667Y-104470000D01*
X120783334Y-104503333D01*
X120716667Y-104536667D01*
X120516667Y-104536667D01*
X120450000Y-104503333D01*
X120416667Y-104470000D01*
D13*
X120216667Y-101186190D02*
X120050000Y-100948095D01*
X119930953Y-101186190D02*
X119930953Y-100686190D01*
X120121429Y-100686190D01*
X120169048Y-100710000D01*
X120192857Y-100733810D01*
X120216667Y-100781429D01*
X120216667Y-100852857D01*
X120192857Y-100900476D01*
X120169048Y-100924286D01*
X120121429Y-100948095D01*
X119930953Y-100948095D01*
X120383334Y-100686190D02*
X120716667Y-101186190D01*
X120716667Y-100686190D02*
X120383334Y-101186190D01*
D10*
X127216667Y-104433333D02*
X127783333Y-104433333D01*
X127850000Y-104400000D01*
X127883333Y-104366667D01*
X127916667Y-104300000D01*
X127916667Y-104166667D01*
X127883333Y-104100000D01*
X127850000Y-104066667D01*
X127783333Y-104033333D01*
X127216667Y-104033333D01*
X127916667Y-103333334D02*
X127916667Y-103733334D01*
X127916667Y-103533334D02*
X127216667Y-103533334D01*
X127316667Y-103600000D01*
X127383333Y-103666667D01*
X127416667Y-103733334D01*
X134483333Y-103866667D02*
X134450000Y-103933333D01*
X134383333Y-104000000D01*
X134283333Y-104100000D01*
X134250000Y-104166667D01*
X134250000Y-104233333D01*
X134416667Y-104200000D02*
X134383333Y-104266667D01*
X134316667Y-104333333D01*
X134183333Y-104366667D01*
X133950000Y-104366667D01*
X133816667Y-104333333D01*
X133750000Y-104266667D01*
X133716667Y-104200000D01*
X133716667Y-104066667D01*
X133750000Y-104000000D01*
X133816667Y-103933333D01*
X133950000Y-103900000D01*
X134183333Y-103900000D01*
X134316667Y-103933333D01*
X134383333Y-104000000D01*
X134416667Y-104066667D01*
X134416667Y-104200000D01*
X134416667Y-103233334D02*
X134416667Y-103633334D01*
X134416667Y-103433334D02*
X133716667Y-103433334D01*
X133816667Y-103500000D01*
X133883333Y-103566667D01*
X133916667Y-103633334D01*
X119391205Y-108172381D02*
X119391205Y-107172381D01*
X119629300Y-107172381D01*
X119772158Y-107220000D01*
X119867396Y-107315238D01*
X119915015Y-107410476D01*
X119962634Y-107600952D01*
X119962634Y-107743810D01*
X119915015Y-107934286D01*
X119867396Y-108029524D01*
X119772158Y-108124762D01*
X119629300Y-108172381D01*
X119391205Y-108172381D01*
X120867396Y-107172381D02*
X120391205Y-107172381D01*
X120343586Y-107648571D01*
X120391205Y-107600952D01*
X120486443Y-107553333D01*
X120724539Y-107553333D01*
X120819777Y-107600952D01*
X120867396Y-107648571D01*
X120915015Y-107743810D01*
X120915015Y-107981905D01*
X120867396Y-108077143D01*
X120819777Y-108124762D01*
X120724539Y-108172381D01*
X120486443Y-108172381D01*
X120391205Y-108124762D01*
X120343586Y-108077143D01*
X122027143Y-103962381D02*
X121693809Y-103486190D01*
X121455714Y-103962381D02*
X121455714Y-102962381D01*
X121836667Y-102962381D01*
X121931905Y-103010000D01*
X121979524Y-103057619D01*
X122027143Y-103152857D01*
X122027143Y-103295714D01*
X121979524Y-103390952D01*
X121931905Y-103438571D01*
X121836667Y-103486190D01*
X121455714Y-103486190D01*
X122979524Y-103962381D02*
X122408095Y-103962381D01*
X122693809Y-103962381D02*
X122693809Y-102962381D01*
X122598571Y-103105238D01*
X122503333Y-103200476D01*
X122408095Y-103248095D01*
X123360476Y-103057619D02*
X123408095Y-103010000D01*
X123503333Y-102962381D01*
X123741429Y-102962381D01*
X123836667Y-103010000D01*
X123884286Y-103057619D01*
X123931905Y-103152857D01*
X123931905Y-103248095D01*
X123884286Y-103390952D01*
X123312857Y-103962381D01*
X123931905Y-103962381D01*
M02*
