M48
INCH,TZ
T1C0.012
T2C0.040
%
G90
G05
T1
X3.9921Y-4.0945
X4.0738Y-4.315
X4.1142Y-4.2795
X4.1565Y-4.373
X4.1939Y-4.2789
X4.2441Y-4.3465
X4.2461Y-4.2618
X4.248Y-4.0945
X4.2618Y-4.375
X4.2839Y-4.2789
X4.2982Y-4.3612
X4.3425Y-4.0945
X4.3602Y-4.4173
X4.3622Y-4.2795
X4.456Y-4.33
X4.4577Y-4.3898
X4.4606Y-4.2618
X4.5285Y-4.4124
X4.563Y-4.3061
X4.5768Y-4.4291
X4.6683Y-4.3465
X4.8239Y-4.0989
X4.8248Y-4.3209
X4.8661Y-4.2766
X4.9055Y-4.3219
X4.9449Y-4.2933
X4.95Y-4.1168
X4.9744Y-4.3209
X5.1423Y-4.1168
X5.185Y-4.3937
X5.252Y-4.0945
X5.378Y-4.189
X5.4961Y-4.0945
T2
X5.0886Y-4.3114
X5.0886Y-4.4114
T0
M30
