G04 #@! TF.FileFunction,Copper,L1,Top,Signal*
%FSLAX46Y46*%
G04 Gerber Fmt 4.6, Leading zero omitted, Abs format (unit mm)*
G04 Created by KiCad (PCBNEW (2015-08-18 BZR 6103)-product) date Wednesday, 26 August 2015 13:48:05*
%MOMM*%
G01*
G04 APERTURE LIST*
%ADD10C,0.150000*%
%ADD11R,1.200000X0.400000*%
%ADD12R,0.750000X0.800000*%
%ADD13R,0.400000X1.350000*%
%ADD14R,1.900000X1.300000*%
%ADD15R,1.900000X1.900000*%
%ADD16R,1.550000X1.300000*%
%ADD17R,0.890000X3.000000*%
%ADD18R,2.032000X2.032000*%
%ADD19O,2.032000X2.032000*%
%ADD20R,0.800000X0.900000*%
%ADD21R,0.900000X0.800000*%
%ADD22R,0.797560X0.797560*%
%ADD23R,1.200000X1.016000*%
%ADD24R,0.500000X0.900000*%
%ADD25C,0.600000*%
%ADD26C,0.177800*%
%ADD27C,0.381000*%
%ADD28C,0.254000*%
%ADD29C,0.250000*%
G04 APERTURE END LIST*
D10*
D11*
X112000000Y-108077500D03*
X112000000Y-108712500D03*
X112000000Y-109347500D03*
X112000000Y-109982500D03*
X112000000Y-110617500D03*
X112000000Y-111252500D03*
X112000000Y-111887500D03*
X112000000Y-112522500D03*
X117200000Y-112522500D03*
X117200000Y-111887500D03*
X117200000Y-111252500D03*
X117200000Y-110617500D03*
X117200000Y-109982500D03*
X117200000Y-109347500D03*
X117200000Y-108712500D03*
X117200000Y-108077500D03*
D12*
X129100000Y-103250000D03*
X129100000Y-101750000D03*
X123400000Y-103250000D03*
X123400000Y-101750000D03*
X112200000Y-103250000D03*
X112200000Y-101750000D03*
X113800000Y-103250000D03*
X113800000Y-101750000D03*
X101700000Y-106030000D03*
X101700000Y-107530000D03*
X107034000Y-106030000D03*
X107034000Y-107530000D03*
X115400000Y-103250000D03*
X115400000Y-101750000D03*
D13*
X105150000Y-104175000D03*
X106450000Y-104175000D03*
X105800000Y-104175000D03*
X107100000Y-104175000D03*
X104500000Y-104175000D03*
D14*
X101850000Y-101500000D03*
D15*
X104600000Y-101500000D03*
X107000000Y-101500000D03*
D14*
X109750000Y-101500000D03*
D16*
X131761000Y-112840000D03*
X131761000Y-108340000D03*
X139711000Y-112840000D03*
X139711000Y-108340000D03*
D17*
X126600000Y-112250000D03*
X126600000Y-107750000D03*
X124600000Y-112250000D03*
X124600000Y-107750000D03*
X122600000Y-107750000D03*
X122600000Y-112250000D03*
D18*
X129250000Y-112050000D03*
D19*
X129250000Y-109510000D03*
D20*
X131585000Y-105500000D03*
X133015000Y-105500000D03*
X130015000Y-105500000D03*
X128585000Y-105500000D03*
D21*
X121800000Y-103215000D03*
X121800000Y-101785000D03*
X117200000Y-103215000D03*
X117200000Y-101785000D03*
D20*
X134585000Y-105500000D03*
X136015000Y-105500000D03*
X137585000Y-105500000D03*
X139015000Y-105500000D03*
D21*
X104494000Y-111813000D03*
X104494000Y-110383000D03*
X106907000Y-110383000D03*
X106907000Y-111813000D03*
X105256000Y-106065000D03*
X105256000Y-107495000D03*
X103478000Y-106065000D03*
X103478000Y-107495000D03*
X108812000Y-107495000D03*
X108812000Y-106065000D03*
D22*
X131000000Y-103249300D03*
X131000000Y-101750700D03*
X132600000Y-103249300D03*
X132600000Y-101750700D03*
X118700000Y-101750700D03*
X118700000Y-103249300D03*
X120300000Y-101750700D03*
X120300000Y-103249300D03*
D23*
X125140000Y-101550000D03*
X125140000Y-103450000D03*
X127260000Y-102500000D03*
X136560000Y-103450000D03*
X136560000Y-101550000D03*
X134440000Y-102500000D03*
D22*
X120878600Y-109220000D03*
X119380000Y-109220000D03*
D24*
X121920000Y-105410000D03*
X123420000Y-105410000D03*
D25*
X115900000Y-109375000D03*
X107800000Y-110400000D03*
X110800000Y-108700000D03*
X118575000Y-110400000D03*
X113225000Y-111500000D03*
X139600000Y-104000000D03*
X101400000Y-104000000D03*
X108812000Y-108685000D03*
X123600000Y-108625000D03*
X113300000Y-108250000D03*
X122550000Y-109750000D03*
X109175000Y-110775000D03*
X107850000Y-108250000D03*
X126350000Y-109750000D03*
X113182500Y-109982500D03*
X124600000Y-109775000D03*
X122528000Y-104113000D03*
X125600000Y-109050000D03*
X110300000Y-104000000D03*
X107900000Y-104000000D03*
X108250000Y-111125000D03*
X131700000Y-111600000D03*
X106526000Y-108685000D03*
X104500000Y-108700000D03*
X105575000Y-111075000D03*
X116250000Y-112500000D03*
X110750000Y-112200000D03*
X103475000Y-109600000D03*
X115025000Y-112075000D03*
X133400000Y-104000000D03*
X125730000Y-104566710D03*
X130613753Y-104566709D03*
X136600000Y-106400000D03*
D26*
X117200000Y-108712500D02*
X118187500Y-108712500D01*
X118700000Y-108200000D02*
X118700000Y-103249300D01*
X118187500Y-108712500D02*
X118700000Y-108200000D01*
X117384500Y-108812000D02*
X117321000Y-108748500D01*
X120300000Y-104212102D02*
X120300000Y-103249300D01*
X119055602Y-105456500D02*
X120300000Y-104212102D01*
X119055602Y-108347296D02*
X119055602Y-105456500D01*
X117200000Y-109347500D02*
X118055398Y-109347500D01*
X118055398Y-109347500D02*
X119055602Y-108347296D01*
X112000000Y-111887500D02*
X111256898Y-111887500D01*
X108794398Y-111580602D02*
X107875000Y-112500000D01*
X110950000Y-111580602D02*
X108794398Y-111580602D01*
X111256898Y-111887500D02*
X110950000Y-111580602D01*
X104494000Y-111813000D02*
X105163000Y-111813000D01*
X105850000Y-112500000D02*
X107875000Y-112500000D01*
X105163000Y-111813000D02*
X105850000Y-112500000D01*
X107800000Y-110400000D02*
X106924000Y-110400000D01*
X106924000Y-110400000D02*
X106907000Y-110383000D01*
X116522500Y-108077500D02*
X117200000Y-108077500D01*
X115900000Y-109375000D02*
X116200000Y-109075000D01*
X116200000Y-109075000D02*
X116200000Y-108400000D01*
X116200000Y-108400000D02*
X116522500Y-108077500D01*
X112000000Y-108712500D02*
X110812500Y-108712500D01*
X110812500Y-108712500D02*
X110800000Y-108700000D01*
X111923500Y-108685000D02*
X111987000Y-108748500D01*
D27*
X119151400Y-109220000D02*
X118388900Y-109982500D01*
X118388900Y-109982500D02*
X117200000Y-109982500D01*
X111760000Y-104140000D02*
X111149086Y-104140000D01*
X109631699Y-104320785D02*
X109631699Y-103168301D01*
X111149086Y-104140000D02*
X110620785Y-104668301D01*
X110620785Y-104668301D02*
X109979215Y-104668301D01*
X109979215Y-104668301D02*
X109631699Y-104320785D01*
X109631699Y-103168301D02*
X109750000Y-103050000D01*
X112000000Y-110617500D02*
X112817500Y-110617500D01*
X113225000Y-111025000D02*
X113225000Y-111500000D01*
X112817500Y-110617500D02*
X113225000Y-111025000D01*
X117200000Y-109982500D02*
X118157500Y-109982500D01*
X118157500Y-109982500D02*
X118575000Y-110400000D01*
X129250000Y-112050000D02*
X131700000Y-109600000D01*
X131700000Y-109600000D02*
X131700000Y-108401000D01*
X131700000Y-108401000D02*
X131761000Y-108340000D01*
X140200000Y-105400000D02*
X140200000Y-106900000D01*
X139711000Y-107389000D02*
X139711000Y-108340000D01*
X140200000Y-106900000D02*
X139711000Y-107389000D01*
X139600000Y-104000000D02*
X140200000Y-104600000D01*
X140100000Y-105500000D02*
X139015000Y-105500000D01*
X140200000Y-105400000D02*
X140100000Y-105500000D01*
X140200000Y-104600000D02*
X140200000Y-105400000D01*
X136499240Y-100600760D02*
X139599240Y-100600760D01*
X139600000Y-100600000D02*
X139599240Y-100600760D01*
X139600000Y-100600000D02*
X139600000Y-104000000D01*
X131000000Y-100600760D02*
X136499240Y-100600760D01*
X136560000Y-100661520D02*
X136560000Y-101550000D01*
X136499240Y-100600760D02*
X136560000Y-100661520D01*
X131000000Y-101750700D02*
X131000000Y-100600760D01*
X125200000Y-100600760D02*
X123400760Y-100600760D01*
X123400760Y-100600760D02*
X123400000Y-100600000D01*
X139711000Y-108340000D02*
X131761000Y-108340000D01*
X108812000Y-106065000D02*
X108165000Y-106065000D01*
X107670000Y-107530000D02*
X107034000Y-107530000D01*
X107900000Y-107300000D02*
X107670000Y-107530000D01*
X107900000Y-106330000D02*
X107900000Y-107300000D01*
X108165000Y-106065000D02*
X107900000Y-106330000D01*
X108812000Y-106065000D02*
X109565000Y-106065000D01*
X109700000Y-106200000D02*
X109700000Y-109815418D01*
X109565000Y-106065000D02*
X109700000Y-106200000D01*
X108812000Y-106065000D02*
X108812000Y-103988000D01*
X109750000Y-103050000D02*
X109750000Y-101500000D01*
X108812000Y-103988000D02*
X109750000Y-103050000D01*
X113800000Y-101750000D02*
X115400000Y-101750000D01*
X112200000Y-101750000D02*
X113800000Y-101750000D01*
X115400000Y-101750000D02*
X116050000Y-101750000D01*
X116300000Y-100850000D02*
X116550000Y-100600000D01*
X116300000Y-101500000D02*
X116300000Y-100850000D01*
X116050000Y-101750000D02*
X116300000Y-101500000D01*
X116550000Y-100600000D02*
X123400000Y-100600000D01*
X123400000Y-101750000D02*
X123400000Y-100600000D01*
X109750000Y-101500000D02*
X111000000Y-101500000D01*
X111000000Y-101500000D02*
X111250000Y-101750000D01*
X111250000Y-101750000D02*
X112200000Y-101750000D01*
X101400000Y-104000000D02*
X101200000Y-104000000D01*
X100930000Y-107530000D02*
X101700000Y-107530000D01*
X100900000Y-107500000D02*
X100930000Y-107530000D01*
X100900000Y-104300000D02*
X100900000Y-107500000D01*
X101200000Y-104000000D02*
X100900000Y-104300000D01*
X101850000Y-101500000D02*
X101850000Y-103050000D01*
X101850000Y-103050000D02*
X101400000Y-103500000D01*
X101400000Y-103500000D02*
X101400000Y-104000000D01*
X112000000Y-110617500D02*
X110502082Y-110617500D01*
X110502082Y-110617500D02*
X109700000Y-109815418D01*
X109750000Y-101500000D02*
X107000000Y-101500000D01*
X107000000Y-101500000D02*
X104600000Y-101500000D01*
X104600000Y-101500000D02*
X101850000Y-101500000D01*
X125199240Y-100600760D02*
X125200000Y-100600760D01*
X125200000Y-100600760D02*
X129000760Y-100600760D01*
X125199240Y-100600760D02*
X125199240Y-101550000D01*
X129100000Y-100700000D02*
X129100000Y-101750000D01*
X104500000Y-104175000D02*
X104500000Y-101600000D01*
X129000760Y-100600760D02*
X131000000Y-100600760D01*
X129000760Y-100600760D02*
X129100000Y-100700000D01*
D26*
X108812000Y-108685000D02*
X108812000Y-109574000D01*
X110463000Y-111225000D02*
X111923500Y-111225000D01*
X108812000Y-109574000D02*
X110463000Y-111225000D01*
X111923500Y-111225000D02*
X111987000Y-111288500D01*
X108812000Y-107542000D02*
X108812000Y-108685000D01*
X123600000Y-108625000D02*
X123600000Y-109625000D01*
X124600000Y-110625000D02*
X124600000Y-112250000D01*
X123600000Y-109625000D02*
X124600000Y-110625000D01*
X112000000Y-108077500D02*
X113127500Y-108077500D01*
X113127500Y-108077500D02*
X113300000Y-108250000D01*
X122600000Y-109800000D02*
X122600000Y-112250000D01*
X122550000Y-109750000D02*
X122600000Y-109800000D01*
X109175000Y-110439898D02*
X109175000Y-110775000D01*
X108225000Y-109489898D02*
X109175000Y-110439898D01*
X108225000Y-108625000D02*
X108225000Y-109489898D01*
X107850000Y-108250000D02*
X108225000Y-108625000D01*
X126350000Y-109750000D02*
X126550000Y-109950000D01*
X126550000Y-109950000D02*
X126550000Y-112200000D01*
X126550000Y-112200000D02*
X126600000Y-112250000D01*
X112000000Y-109982500D02*
X113182500Y-109982500D01*
X124600000Y-109775000D02*
X124600000Y-107750000D01*
X122576000Y-104161000D02*
X122576000Y-107324000D01*
X122528000Y-104113000D02*
X122576000Y-104161000D01*
X125625000Y-109051471D02*
X125845915Y-109051471D01*
X125600000Y-109050000D02*
X125625000Y-109051471D01*
X125845915Y-109051471D02*
X126600000Y-108297386D01*
X126600000Y-108297386D02*
X126600000Y-107750000D01*
X126600000Y-108500000D02*
X126600000Y-107750000D01*
X126600000Y-108825000D02*
X126600000Y-107750000D01*
X126576000Y-107726000D02*
X126600000Y-107750000D01*
D27*
X115035000Y-104445000D02*
X115035000Y-110115000D01*
X115537500Y-110617500D02*
X117200000Y-110617500D01*
X115035000Y-110115000D02*
X115537500Y-110617500D01*
X113800000Y-103250000D02*
X113840000Y-103250000D01*
X113840000Y-103250000D02*
X115035000Y-104445000D01*
X107100000Y-104175000D02*
X107725000Y-104175000D01*
X111050000Y-103250000D02*
X112200000Y-103250000D01*
X110300000Y-104000000D02*
X111050000Y-103250000D01*
X107725000Y-104175000D02*
X107900000Y-104000000D01*
X112160000Y-103224000D02*
X113754000Y-103224000D01*
D26*
X101700000Y-106018000D02*
X103478000Y-106018000D01*
X105800000Y-104175000D02*
X105800000Y-104784000D01*
X103605000Y-105510000D02*
X103605000Y-105891000D01*
X103914000Y-105201000D02*
X103605000Y-105510000D01*
X105383000Y-105201000D02*
X103914000Y-105201000D01*
X105800000Y-104784000D02*
X105383000Y-105201000D01*
X103605000Y-105891000D02*
X103478000Y-106018000D01*
X105256000Y-106065000D02*
X106999000Y-106065000D01*
X106999000Y-106065000D02*
X107034000Y-106030000D01*
X106450000Y-104175000D02*
X106450000Y-105150000D01*
X105935000Y-106065000D02*
X105256000Y-106065000D01*
X106000000Y-106000000D02*
X105935000Y-106065000D01*
X106000000Y-105600000D02*
X106000000Y-106000000D01*
X106450000Y-105150000D02*
X106000000Y-105600000D01*
X132600000Y-101750700D02*
X133050700Y-101750700D01*
X133800000Y-102500000D02*
X134440000Y-102500000D01*
X133050700Y-101750700D02*
X133800000Y-102500000D01*
X133015000Y-105500000D02*
X133015000Y-104715000D01*
X132600000Y-104300000D02*
X132600000Y-103249300D01*
X133015000Y-104715000D02*
X132600000Y-104300000D01*
X106800000Y-111125000D02*
X108250000Y-111125000D01*
X106175000Y-110900000D02*
X106400000Y-111125000D01*
X106907000Y-111232000D02*
X106907000Y-111813000D01*
X106800000Y-111125000D02*
X106907000Y-111232000D01*
X106400000Y-111125000D02*
X106800000Y-111125000D01*
X106907000Y-111813000D02*
X106907000Y-111632000D01*
X106526000Y-109474000D02*
X106526000Y-108685000D01*
X106175000Y-109825000D02*
X106526000Y-109474000D01*
X106175000Y-110900000D02*
X106175000Y-109825000D01*
X131761000Y-111661000D02*
X131761000Y-112840000D01*
X131700000Y-111600000D02*
X131761000Y-111661000D01*
X106907000Y-111860000D02*
X106653000Y-111860000D01*
X131761000Y-112840000D02*
X139711000Y-112840000D01*
X104500000Y-108700000D02*
X104494000Y-110336000D01*
X136015000Y-105500000D02*
X136015000Y-104885000D01*
X136560000Y-104340000D02*
X136560000Y-103450000D01*
X136015000Y-104885000D02*
X136560000Y-104340000D01*
X137585000Y-105500000D02*
X136015000Y-105500000D01*
X105256000Y-110756000D02*
X105256000Y-107495000D01*
X105575000Y-111075000D02*
X105256000Y-110756000D01*
X117200000Y-112522500D02*
X116272500Y-112522500D01*
X116272500Y-112522500D02*
X116250000Y-112500000D01*
X112000000Y-112522500D02*
X111072500Y-112522500D01*
X111072500Y-112522500D02*
X110750000Y-112200000D01*
X103478000Y-109597000D02*
X103478000Y-107495000D01*
X103475000Y-109600000D02*
X103478000Y-109597000D01*
X128585000Y-105500000D02*
X128585000Y-105015000D01*
X130350700Y-103249300D02*
X131000000Y-103249300D01*
X128585000Y-105015000D02*
X130350700Y-103249300D01*
X120300000Y-101750700D02*
X121799300Y-101750700D01*
X121799300Y-101750700D02*
X121800000Y-101750000D01*
X118700000Y-101750700D02*
X117200700Y-101750700D01*
X117200700Y-101750700D02*
X117200000Y-101750000D01*
D28*
X117200000Y-111887500D02*
X119557302Y-111887500D01*
X119557302Y-111887500D02*
X120175019Y-111269783D01*
X120175019Y-111269783D02*
X120175019Y-105493981D01*
X120175019Y-105493981D02*
X121800000Y-103869000D01*
X121800000Y-103869000D02*
X121800000Y-103215000D01*
X129100000Y-103250000D02*
X129100000Y-102700000D01*
X128900000Y-102500000D02*
X127198220Y-102500000D01*
X129100000Y-102700000D02*
X128900000Y-102500000D01*
X121800000Y-102500000D02*
X117300000Y-102500000D01*
X117200000Y-102600000D02*
X117200000Y-103215000D01*
X117300000Y-102500000D02*
X117200000Y-102600000D01*
X117200000Y-111887500D02*
X117200000Y-111252500D01*
X121800000Y-102500000D02*
X121800000Y-103250000D01*
X117200000Y-103250000D02*
X115400000Y-103250000D01*
X127198220Y-102500000D02*
X121800000Y-102500000D01*
D26*
X117384500Y-111352000D02*
X117321000Y-111288500D01*
D28*
X115025000Y-110950000D02*
X115025000Y-112075000D01*
X113422500Y-109347500D02*
X115025000Y-110950000D01*
X112000000Y-109347500D02*
X113422500Y-109347500D01*
X129250000Y-109510000D02*
X129210000Y-109510000D01*
X129210000Y-109510000D02*
X127608000Y-107908000D01*
X127608000Y-105002000D02*
X127608000Y-107908000D01*
X125199240Y-103450000D02*
X126056000Y-103450000D01*
X126056000Y-103450000D02*
X127608000Y-105002000D01*
X123400000Y-103250000D02*
X124150000Y-103250000D01*
X124350000Y-103450000D02*
X125199240Y-103450000D01*
X124150000Y-103250000D02*
X124350000Y-103450000D01*
D26*
X134000000Y-105500000D02*
X134585000Y-105500000D01*
X133800000Y-105300000D02*
X134000000Y-105500000D01*
X133800000Y-104400000D02*
X133800000Y-105300000D01*
X133400000Y-104000000D02*
X133800000Y-104400000D01*
X121920000Y-105410000D02*
X121920000Y-106037800D01*
X120650000Y-107307800D02*
X120650000Y-108643420D01*
X120650000Y-108643420D02*
X120650000Y-109220000D01*
X121920000Y-106037800D02*
X120650000Y-107307800D01*
X124460000Y-105410000D02*
X123420000Y-105410000D01*
X124460000Y-105410000D02*
X124886710Y-105410000D01*
X124886710Y-105410000D02*
X125730000Y-104566710D01*
X130613753Y-104566709D02*
X130613753Y-104901247D01*
X130613753Y-104901247D02*
X130015000Y-105500000D01*
D28*
X131585000Y-105500000D02*
X131585000Y-106185000D01*
X131800000Y-106400000D02*
X136600000Y-106400000D01*
X131585000Y-106185000D02*
X131800000Y-106400000D01*
X130015000Y-105500000D02*
X131585000Y-105500000D01*
D29*
G36*
X127779870Y-109001938D02*
X127678810Y-109510000D01*
X127796112Y-110099715D01*
X128025944Y-110443684D01*
X127879966Y-110504150D01*
X127704151Y-110679966D01*
X127609000Y-110909680D01*
X127609000Y-111768750D01*
X127765250Y-111925000D01*
X129125000Y-111925000D01*
X129125000Y-111905000D01*
X129375000Y-111905000D01*
X129375000Y-111925000D01*
X129395000Y-111925000D01*
X129395000Y-112175000D01*
X129375000Y-112175000D01*
X129375000Y-112195000D01*
X129125000Y-112195000D01*
X129125000Y-112175000D01*
X127765250Y-112175000D01*
X127609000Y-112331250D01*
X127609000Y-113190320D01*
X127704151Y-113420034D01*
X127709117Y-113425000D01*
X127580285Y-113425000D01*
X127580285Y-110750000D01*
X127543677Y-110555447D01*
X127428696Y-110376761D01*
X127253256Y-110256888D01*
X127163900Y-110238793D01*
X127163900Y-109950000D01*
X127162718Y-109944057D01*
X127174857Y-109914823D01*
X127174991Y-109760825D01*
X127239553Y-109748677D01*
X127418239Y-109633696D01*
X127538112Y-109458256D01*
X127580285Y-109250000D01*
X127580285Y-108802353D01*
X127779870Y-109001938D01*
X127779870Y-109001938D01*
G37*
X127779870Y-109001938D02*
X127678810Y-109510000D01*
X127796112Y-110099715D01*
X128025944Y-110443684D01*
X127879966Y-110504150D01*
X127704151Y-110679966D01*
X127609000Y-110909680D01*
X127609000Y-111768750D01*
X127765250Y-111925000D01*
X129125000Y-111925000D01*
X129125000Y-111905000D01*
X129375000Y-111905000D01*
X129375000Y-111925000D01*
X129395000Y-111925000D01*
X129395000Y-112175000D01*
X129375000Y-112175000D01*
X129375000Y-112195000D01*
X129125000Y-112195000D01*
X129125000Y-112175000D01*
X127765250Y-112175000D01*
X127609000Y-112331250D01*
X127609000Y-113190320D01*
X127704151Y-113420034D01*
X127709117Y-113425000D01*
X127580285Y-113425000D01*
X127580285Y-110750000D01*
X127543677Y-110555447D01*
X127428696Y-110376761D01*
X127253256Y-110256888D01*
X127163900Y-110238793D01*
X127163900Y-109950000D01*
X127162718Y-109944057D01*
X127174857Y-109914823D01*
X127174991Y-109760825D01*
X127239553Y-109748677D01*
X127418239Y-109633696D01*
X127538112Y-109458256D01*
X127580285Y-109250000D01*
X127580285Y-108802353D01*
X127779870Y-109001938D01*
G36*
X101975000Y-101375000D02*
X104475000Y-101375000D01*
X104475000Y-101355000D01*
X104725000Y-101355000D01*
X104725000Y-101375000D01*
X106875000Y-101375000D01*
X106875000Y-101355000D01*
X107125000Y-101355000D01*
X107125000Y-101375000D01*
X109625000Y-101375000D01*
X109625000Y-101355000D01*
X109875000Y-101355000D01*
X109875000Y-101375000D01*
X109895000Y-101375000D01*
X109895000Y-101625000D01*
X109875000Y-101625000D01*
X109875000Y-102618750D01*
X110031250Y-102775000D01*
X110513130Y-102775000D01*
X110096836Y-103191294D01*
X109833285Y-103300191D01*
X109601007Y-103532065D01*
X109475143Y-103835177D01*
X109474857Y-104163383D01*
X109600191Y-104466715D01*
X109832065Y-104698993D01*
X110135177Y-104824857D01*
X110463383Y-104825143D01*
X110766715Y-104699809D01*
X110998993Y-104467935D01*
X111109100Y-104202770D01*
X111346370Y-103965500D01*
X111404150Y-103965500D01*
X111441304Y-104023239D01*
X111616744Y-104143112D01*
X111825000Y-104185285D01*
X112575000Y-104185285D01*
X112769553Y-104148677D01*
X112948239Y-104033696D01*
X112999632Y-103958479D01*
X113041304Y-104023239D01*
X113216744Y-104143112D01*
X113425000Y-104185285D01*
X113763415Y-104185285D01*
X114319500Y-104741370D01*
X114319500Y-109322432D01*
X113883534Y-108886466D01*
X113851566Y-108865106D01*
X113998993Y-108717935D01*
X114124857Y-108414823D01*
X114125143Y-108086617D01*
X113999809Y-107783285D01*
X113767935Y-107551007D01*
X113464823Y-107425143D01*
X113136617Y-107424857D01*
X113042852Y-107463600D01*
X112924187Y-107463600D01*
X112808256Y-107384388D01*
X112600000Y-107342215D01*
X111400000Y-107342215D01*
X111205447Y-107378823D01*
X111026761Y-107493804D01*
X110906888Y-107669244D01*
X110865210Y-107875056D01*
X110636617Y-107874857D01*
X110333285Y-108000191D01*
X110101007Y-108232065D01*
X109975143Y-108535177D01*
X109974857Y-108863383D01*
X110100191Y-109166715D01*
X110332065Y-109398993D01*
X110635177Y-109524857D01*
X110864715Y-109525057D01*
X110864715Y-109547500D01*
X110887636Y-109669313D01*
X110864715Y-109782500D01*
X110864715Y-110076590D01*
X110775000Y-110293180D01*
X110775000Y-110361250D01*
X110906248Y-110492498D01*
X110775000Y-110492498D01*
X110775000Y-110611100D01*
X110717286Y-110611100D01*
X109425900Y-109319714D01*
X109425900Y-109237880D01*
X109510993Y-109152935D01*
X109636857Y-108849823D01*
X109637143Y-108521617D01*
X109557452Y-108328750D01*
X109635239Y-108278696D01*
X109755112Y-108103256D01*
X109797285Y-107895000D01*
X109797285Y-107095000D01*
X109760677Y-106900447D01*
X109741006Y-106869878D01*
X109791850Y-106819034D01*
X109887000Y-106589320D01*
X109887000Y-106346250D01*
X109730750Y-106190000D01*
X108937000Y-106190000D01*
X108937000Y-106210000D01*
X108687000Y-106210000D01*
X108687000Y-106190000D01*
X108667000Y-106190000D01*
X108667000Y-105940000D01*
X108687000Y-105940000D01*
X108687000Y-105196250D01*
X108937000Y-105196250D01*
X108937000Y-105940000D01*
X109730750Y-105940000D01*
X109887000Y-105783750D01*
X109887000Y-105540680D01*
X109791850Y-105310966D01*
X109616034Y-105135151D01*
X109386320Y-105040000D01*
X109093250Y-105040000D01*
X108937000Y-105196250D01*
X108687000Y-105196250D01*
X108530750Y-105040000D01*
X108237680Y-105040000D01*
X108007966Y-105135151D01*
X107832150Y-105310966D01*
X107830359Y-105315291D01*
X107792696Y-105256761D01*
X107700515Y-105193776D01*
X107793112Y-105058256D01*
X107831368Y-104869342D01*
X107998810Y-104836036D01*
X108015175Y-104825101D01*
X108063383Y-104825143D01*
X108366715Y-104699809D01*
X108598993Y-104467935D01*
X108724857Y-104164823D01*
X108725143Y-103836617D01*
X108599809Y-103533285D01*
X108367935Y-103301007D01*
X108064823Y-103175143D01*
X107736617Y-103174857D01*
X107719260Y-103182029D01*
X107683696Y-103126761D01*
X107607941Y-103075000D01*
X108074320Y-103075000D01*
X108304034Y-102979850D01*
X108479849Y-102804034D01*
X108518793Y-102710016D01*
X108675680Y-102775000D01*
X109468750Y-102775000D01*
X109625000Y-102618750D01*
X109625000Y-101625000D01*
X107125000Y-101625000D01*
X107125000Y-101645000D01*
X106875000Y-101645000D01*
X106875000Y-101625000D01*
X104725000Y-101625000D01*
X104725000Y-102906250D01*
X104600000Y-103031250D01*
X104600000Y-103101350D01*
X104576761Y-103116304D01*
X104456888Y-103291744D01*
X104414715Y-103500000D01*
X104414715Y-104320000D01*
X104400000Y-104320000D01*
X104400000Y-104300000D01*
X103831250Y-104300000D01*
X103675000Y-104456250D01*
X103675000Y-104636549D01*
X103479907Y-104766907D01*
X103170907Y-105075907D01*
X103134953Y-105129715D01*
X103028000Y-105129715D01*
X102833447Y-105166323D01*
X102654761Y-105281304D01*
X102570858Y-105404100D01*
X102553506Y-105404100D01*
X102458696Y-105256761D01*
X102283256Y-105136888D01*
X102075000Y-105094715D01*
X101325000Y-105094715D01*
X101130447Y-105131323D01*
X100951761Y-105246304D01*
X100831888Y-105421744D01*
X100789715Y-105630000D01*
X100789715Y-106430000D01*
X100826323Y-106624553D01*
X100873401Y-106697715D01*
X100795150Y-106775966D01*
X100700000Y-107005680D01*
X100700000Y-107248750D01*
X100856250Y-107405000D01*
X101575000Y-107405000D01*
X101575000Y-107385000D01*
X101825000Y-107385000D01*
X101825000Y-107405000D01*
X101845000Y-107405000D01*
X101845000Y-107655000D01*
X101825000Y-107655000D01*
X101825000Y-108398750D01*
X101981250Y-108555000D01*
X102199320Y-108555000D01*
X102429034Y-108459849D01*
X102604850Y-108284034D01*
X102624281Y-108237123D01*
X102644304Y-108268239D01*
X102819744Y-108388112D01*
X102864100Y-108397094D01*
X102864100Y-109044125D01*
X102776007Y-109132065D01*
X102650143Y-109435177D01*
X102649857Y-109763383D01*
X102775191Y-110066715D01*
X103007065Y-110298993D01*
X103310177Y-110424857D01*
X103508715Y-110425030D01*
X103508715Y-110783000D01*
X103545323Y-110977553D01*
X103623311Y-111098750D01*
X103550888Y-111204744D01*
X103508715Y-111413000D01*
X103508715Y-112213000D01*
X103545323Y-112407553D01*
X103660304Y-112586239D01*
X103835744Y-112706112D01*
X104044000Y-112748285D01*
X104944000Y-112748285D01*
X105138553Y-112711677D01*
X105171981Y-112690167D01*
X105415907Y-112934093D01*
X105615070Y-113067170D01*
X105850000Y-113113900D01*
X107875000Y-113113900D01*
X108109930Y-113067170D01*
X108309093Y-112934093D01*
X109048684Y-112194502D01*
X109925004Y-112194502D01*
X109924857Y-112363383D01*
X110050191Y-112666715D01*
X110282065Y-112898993D01*
X110585177Y-113024857D01*
X110740774Y-113024993D01*
X110837570Y-113089670D01*
X111072500Y-113136400D01*
X111075813Y-113136400D01*
X111191744Y-113215612D01*
X111400000Y-113257785D01*
X112600000Y-113257785D01*
X112794553Y-113221177D01*
X112973239Y-113106196D01*
X113093112Y-112930756D01*
X113135285Y-112722500D01*
X113135285Y-112322500D01*
X113112364Y-112200687D01*
X113135285Y-112087500D01*
X113135285Y-111687500D01*
X113112364Y-111565687D01*
X113135285Y-111452500D01*
X113135285Y-111158410D01*
X113225000Y-110941820D01*
X113225000Y-110873750D01*
X113158730Y-110807480D01*
X113345883Y-110807643D01*
X113649215Y-110682309D01*
X113742309Y-110589377D01*
X114373000Y-111220067D01*
X114373000Y-111560154D01*
X114326007Y-111607065D01*
X114200143Y-111910177D01*
X114199857Y-112238383D01*
X114325191Y-112541715D01*
X114557065Y-112773993D01*
X114860177Y-112899857D01*
X115188383Y-112900143D01*
X115473933Y-112782156D01*
X115550191Y-112966715D01*
X115782065Y-113198993D01*
X116085177Y-113324857D01*
X116413383Y-113325143D01*
X116584164Y-113254578D01*
X116600000Y-113257785D01*
X117800000Y-113257785D01*
X117994553Y-113221177D01*
X118173239Y-113106196D01*
X118293112Y-112930756D01*
X118335285Y-112722500D01*
X118335285Y-112539500D01*
X119557297Y-112539500D01*
X119557302Y-112539501D01*
X119765415Y-112498104D01*
X119806812Y-112489869D01*
X120018336Y-112348534D01*
X120636050Y-111730819D01*
X120636053Y-111730817D01*
X120750795Y-111559093D01*
X120777389Y-111519292D01*
X120827020Y-111269783D01*
X120827019Y-111269778D01*
X120827019Y-110154065D01*
X121277380Y-110154065D01*
X121471933Y-110117457D01*
X121650619Y-110002476D01*
X121724874Y-109893800D01*
X121724857Y-109913383D01*
X121850191Y-110216715D01*
X121914350Y-110280986D01*
X121781761Y-110366304D01*
X121661888Y-110541744D01*
X121619715Y-110750000D01*
X121619715Y-113425000D01*
X100575000Y-113425000D01*
X100575000Y-107811250D01*
X100700000Y-107811250D01*
X100700000Y-108054320D01*
X100795150Y-108284034D01*
X100970966Y-108459849D01*
X101200680Y-108555000D01*
X101418750Y-108555000D01*
X101575000Y-108398750D01*
X101575000Y-107655000D01*
X100856250Y-107655000D01*
X100700000Y-107811250D01*
X100575000Y-107811250D01*
X100575000Y-104222795D01*
X101374805Y-104222795D01*
X101545715Y-104636429D01*
X101861907Y-104953172D01*
X102275242Y-105124804D01*
X102722795Y-105125195D01*
X103136429Y-104954285D01*
X103453172Y-104638093D01*
X103624804Y-104224758D01*
X103625195Y-103777205D01*
X103454285Y-103363571D01*
X103138093Y-103046828D01*
X102724758Y-102875196D01*
X102277205Y-102874805D01*
X101863571Y-103045715D01*
X101546828Y-103361907D01*
X101375196Y-103775242D01*
X101374805Y-104222795D01*
X100575000Y-104222795D01*
X100575000Y-102691876D01*
X100775680Y-102775000D01*
X101568750Y-102775000D01*
X101725000Y-102618750D01*
X101725000Y-101625000D01*
X101975000Y-101625000D01*
X101975000Y-102618750D01*
X102131250Y-102775000D01*
X102924320Y-102775000D01*
X103081207Y-102710016D01*
X103120151Y-102804034D01*
X103295966Y-102979850D01*
X103525680Y-103075000D01*
X103841117Y-103075000D01*
X103770151Y-103145966D01*
X103675000Y-103375680D01*
X103675000Y-103893750D01*
X103831250Y-104050000D01*
X104400000Y-104050000D01*
X104400000Y-103031250D01*
X104381250Y-103012500D01*
X104475000Y-102918750D01*
X104475000Y-101625000D01*
X101975000Y-101625000D01*
X101725000Y-101625000D01*
X101705000Y-101625000D01*
X101705000Y-101375000D01*
X101725000Y-101375000D01*
X101725000Y-101355000D01*
X101975000Y-101355000D01*
X101975000Y-101375000D01*
X101975000Y-101375000D01*
G37*
X101975000Y-101375000D02*
X104475000Y-101375000D01*
X104475000Y-101355000D01*
X104725000Y-101355000D01*
X104725000Y-101375000D01*
X106875000Y-101375000D01*
X106875000Y-101355000D01*
X107125000Y-101355000D01*
X107125000Y-101375000D01*
X109625000Y-101375000D01*
X109625000Y-101355000D01*
X109875000Y-101355000D01*
X109875000Y-101375000D01*
X109895000Y-101375000D01*
X109895000Y-101625000D01*
X109875000Y-101625000D01*
X109875000Y-102618750D01*
X110031250Y-102775000D01*
X110513130Y-102775000D01*
X110096836Y-103191294D01*
X109833285Y-103300191D01*
X109601007Y-103532065D01*
X109475143Y-103835177D01*
X109474857Y-104163383D01*
X109600191Y-104466715D01*
X109832065Y-104698993D01*
X110135177Y-104824857D01*
X110463383Y-104825143D01*
X110766715Y-104699809D01*
X110998993Y-104467935D01*
X111109100Y-104202770D01*
X111346370Y-103965500D01*
X111404150Y-103965500D01*
X111441304Y-104023239D01*
X111616744Y-104143112D01*
X111825000Y-104185285D01*
X112575000Y-104185285D01*
X112769553Y-104148677D01*
X112948239Y-104033696D01*
X112999632Y-103958479D01*
X113041304Y-104023239D01*
X113216744Y-104143112D01*
X113425000Y-104185285D01*
X113763415Y-104185285D01*
X114319500Y-104741370D01*
X114319500Y-109322432D01*
X113883534Y-108886466D01*
X113851566Y-108865106D01*
X113998993Y-108717935D01*
X114124857Y-108414823D01*
X114125143Y-108086617D01*
X113999809Y-107783285D01*
X113767935Y-107551007D01*
X113464823Y-107425143D01*
X113136617Y-107424857D01*
X113042852Y-107463600D01*
X112924187Y-107463600D01*
X112808256Y-107384388D01*
X112600000Y-107342215D01*
X111400000Y-107342215D01*
X111205447Y-107378823D01*
X111026761Y-107493804D01*
X110906888Y-107669244D01*
X110865210Y-107875056D01*
X110636617Y-107874857D01*
X110333285Y-108000191D01*
X110101007Y-108232065D01*
X109975143Y-108535177D01*
X109974857Y-108863383D01*
X110100191Y-109166715D01*
X110332065Y-109398993D01*
X110635177Y-109524857D01*
X110864715Y-109525057D01*
X110864715Y-109547500D01*
X110887636Y-109669313D01*
X110864715Y-109782500D01*
X110864715Y-110076590D01*
X110775000Y-110293180D01*
X110775000Y-110361250D01*
X110906248Y-110492498D01*
X110775000Y-110492498D01*
X110775000Y-110611100D01*
X110717286Y-110611100D01*
X109425900Y-109319714D01*
X109425900Y-109237880D01*
X109510993Y-109152935D01*
X109636857Y-108849823D01*
X109637143Y-108521617D01*
X109557452Y-108328750D01*
X109635239Y-108278696D01*
X109755112Y-108103256D01*
X109797285Y-107895000D01*
X109797285Y-107095000D01*
X109760677Y-106900447D01*
X109741006Y-106869878D01*
X109791850Y-106819034D01*
X109887000Y-106589320D01*
X109887000Y-106346250D01*
X109730750Y-106190000D01*
X108937000Y-106190000D01*
X108937000Y-106210000D01*
X108687000Y-106210000D01*
X108687000Y-106190000D01*
X108667000Y-106190000D01*
X108667000Y-105940000D01*
X108687000Y-105940000D01*
X108687000Y-105196250D01*
X108937000Y-105196250D01*
X108937000Y-105940000D01*
X109730750Y-105940000D01*
X109887000Y-105783750D01*
X109887000Y-105540680D01*
X109791850Y-105310966D01*
X109616034Y-105135151D01*
X109386320Y-105040000D01*
X109093250Y-105040000D01*
X108937000Y-105196250D01*
X108687000Y-105196250D01*
X108530750Y-105040000D01*
X108237680Y-105040000D01*
X108007966Y-105135151D01*
X107832150Y-105310966D01*
X107830359Y-105315291D01*
X107792696Y-105256761D01*
X107700515Y-105193776D01*
X107793112Y-105058256D01*
X107831368Y-104869342D01*
X107998810Y-104836036D01*
X108015175Y-104825101D01*
X108063383Y-104825143D01*
X108366715Y-104699809D01*
X108598993Y-104467935D01*
X108724857Y-104164823D01*
X108725143Y-103836617D01*
X108599809Y-103533285D01*
X108367935Y-103301007D01*
X108064823Y-103175143D01*
X107736617Y-103174857D01*
X107719260Y-103182029D01*
X107683696Y-103126761D01*
X107607941Y-103075000D01*
X108074320Y-103075000D01*
X108304034Y-102979850D01*
X108479849Y-102804034D01*
X108518793Y-102710016D01*
X108675680Y-102775000D01*
X109468750Y-102775000D01*
X109625000Y-102618750D01*
X109625000Y-101625000D01*
X107125000Y-101625000D01*
X107125000Y-101645000D01*
X106875000Y-101645000D01*
X106875000Y-101625000D01*
X104725000Y-101625000D01*
X104725000Y-102906250D01*
X104600000Y-103031250D01*
X104600000Y-103101350D01*
X104576761Y-103116304D01*
X104456888Y-103291744D01*
X104414715Y-103500000D01*
X104414715Y-104320000D01*
X104400000Y-104320000D01*
X104400000Y-104300000D01*
X103831250Y-104300000D01*
X103675000Y-104456250D01*
X103675000Y-104636549D01*
X103479907Y-104766907D01*
X103170907Y-105075907D01*
X103134953Y-105129715D01*
X103028000Y-105129715D01*
X102833447Y-105166323D01*
X102654761Y-105281304D01*
X102570858Y-105404100D01*
X102553506Y-105404100D01*
X102458696Y-105256761D01*
X102283256Y-105136888D01*
X102075000Y-105094715D01*
X101325000Y-105094715D01*
X101130447Y-105131323D01*
X100951761Y-105246304D01*
X100831888Y-105421744D01*
X100789715Y-105630000D01*
X100789715Y-106430000D01*
X100826323Y-106624553D01*
X100873401Y-106697715D01*
X100795150Y-106775966D01*
X100700000Y-107005680D01*
X100700000Y-107248750D01*
X100856250Y-107405000D01*
X101575000Y-107405000D01*
X101575000Y-107385000D01*
X101825000Y-107385000D01*
X101825000Y-107405000D01*
X101845000Y-107405000D01*
X101845000Y-107655000D01*
X101825000Y-107655000D01*
X101825000Y-108398750D01*
X101981250Y-108555000D01*
X102199320Y-108555000D01*
X102429034Y-108459849D01*
X102604850Y-108284034D01*
X102624281Y-108237123D01*
X102644304Y-108268239D01*
X102819744Y-108388112D01*
X102864100Y-108397094D01*
X102864100Y-109044125D01*
X102776007Y-109132065D01*
X102650143Y-109435177D01*
X102649857Y-109763383D01*
X102775191Y-110066715D01*
X103007065Y-110298993D01*
X103310177Y-110424857D01*
X103508715Y-110425030D01*
X103508715Y-110783000D01*
X103545323Y-110977553D01*
X103623311Y-111098750D01*
X103550888Y-111204744D01*
X103508715Y-111413000D01*
X103508715Y-112213000D01*
X103545323Y-112407553D01*
X103660304Y-112586239D01*
X103835744Y-112706112D01*
X104044000Y-112748285D01*
X104944000Y-112748285D01*
X105138553Y-112711677D01*
X105171981Y-112690167D01*
X105415907Y-112934093D01*
X105615070Y-113067170D01*
X105850000Y-113113900D01*
X107875000Y-113113900D01*
X108109930Y-113067170D01*
X108309093Y-112934093D01*
X109048684Y-112194502D01*
X109925004Y-112194502D01*
X109924857Y-112363383D01*
X110050191Y-112666715D01*
X110282065Y-112898993D01*
X110585177Y-113024857D01*
X110740774Y-113024993D01*
X110837570Y-113089670D01*
X111072500Y-113136400D01*
X111075813Y-113136400D01*
X111191744Y-113215612D01*
X111400000Y-113257785D01*
X112600000Y-113257785D01*
X112794553Y-113221177D01*
X112973239Y-113106196D01*
X113093112Y-112930756D01*
X113135285Y-112722500D01*
X113135285Y-112322500D01*
X113112364Y-112200687D01*
X113135285Y-112087500D01*
X113135285Y-111687500D01*
X113112364Y-111565687D01*
X113135285Y-111452500D01*
X113135285Y-111158410D01*
X113225000Y-110941820D01*
X113225000Y-110873750D01*
X113158730Y-110807480D01*
X113345883Y-110807643D01*
X113649215Y-110682309D01*
X113742309Y-110589377D01*
X114373000Y-111220067D01*
X114373000Y-111560154D01*
X114326007Y-111607065D01*
X114200143Y-111910177D01*
X114199857Y-112238383D01*
X114325191Y-112541715D01*
X114557065Y-112773993D01*
X114860177Y-112899857D01*
X115188383Y-112900143D01*
X115473933Y-112782156D01*
X115550191Y-112966715D01*
X115782065Y-113198993D01*
X116085177Y-113324857D01*
X116413383Y-113325143D01*
X116584164Y-113254578D01*
X116600000Y-113257785D01*
X117800000Y-113257785D01*
X117994553Y-113221177D01*
X118173239Y-113106196D01*
X118293112Y-112930756D01*
X118335285Y-112722500D01*
X118335285Y-112539500D01*
X119557297Y-112539500D01*
X119557302Y-112539501D01*
X119765415Y-112498104D01*
X119806812Y-112489869D01*
X120018336Y-112348534D01*
X120636050Y-111730819D01*
X120636053Y-111730817D01*
X120750795Y-111559093D01*
X120777389Y-111519292D01*
X120827020Y-111269783D01*
X120827019Y-111269778D01*
X120827019Y-110154065D01*
X121277380Y-110154065D01*
X121471933Y-110117457D01*
X121650619Y-110002476D01*
X121724874Y-109893800D01*
X121724857Y-109913383D01*
X121850191Y-110216715D01*
X121914350Y-110280986D01*
X121781761Y-110366304D01*
X121661888Y-110541744D01*
X121619715Y-110750000D01*
X121619715Y-113425000D01*
X100575000Y-113425000D01*
X100575000Y-107811250D01*
X100700000Y-107811250D01*
X100700000Y-108054320D01*
X100795150Y-108284034D01*
X100970966Y-108459849D01*
X101200680Y-108555000D01*
X101418750Y-108555000D01*
X101575000Y-108398750D01*
X101575000Y-107655000D01*
X100856250Y-107655000D01*
X100700000Y-107811250D01*
X100575000Y-107811250D01*
X100575000Y-104222795D01*
X101374805Y-104222795D01*
X101545715Y-104636429D01*
X101861907Y-104953172D01*
X102275242Y-105124804D01*
X102722795Y-105125195D01*
X103136429Y-104954285D01*
X103453172Y-104638093D01*
X103624804Y-104224758D01*
X103625195Y-103777205D01*
X103454285Y-103363571D01*
X103138093Y-103046828D01*
X102724758Y-102875196D01*
X102277205Y-102874805D01*
X101863571Y-103045715D01*
X101546828Y-103361907D01*
X101375196Y-103775242D01*
X101374805Y-104222795D01*
X100575000Y-104222795D01*
X100575000Y-102691876D01*
X100775680Y-102775000D01*
X101568750Y-102775000D01*
X101725000Y-102618750D01*
X101725000Y-101625000D01*
X101975000Y-101625000D01*
X101975000Y-102618750D01*
X102131250Y-102775000D01*
X102924320Y-102775000D01*
X103081207Y-102710016D01*
X103120151Y-102804034D01*
X103295966Y-102979850D01*
X103525680Y-103075000D01*
X103841117Y-103075000D01*
X103770151Y-103145966D01*
X103675000Y-103375680D01*
X103675000Y-103893750D01*
X103831250Y-104050000D01*
X104400000Y-104050000D01*
X104400000Y-103031250D01*
X104381250Y-103012500D01*
X104475000Y-102918750D01*
X104475000Y-101625000D01*
X101975000Y-101625000D01*
X101725000Y-101625000D01*
X101705000Y-101625000D01*
X101705000Y-101375000D01*
X101725000Y-101375000D01*
X101725000Y-101355000D01*
X101975000Y-101355000D01*
X101975000Y-101375000D01*
G36*
X135430150Y-100687966D02*
X135335000Y-100917680D01*
X135335000Y-101268750D01*
X135491250Y-101425000D01*
X136435000Y-101425000D01*
X136435000Y-101405000D01*
X136685000Y-101405000D01*
X136685000Y-101425000D01*
X137628750Y-101425000D01*
X137785000Y-101268750D01*
X137785000Y-100917680D01*
X137689850Y-100687966D01*
X137576883Y-100575000D01*
X140425000Y-100575000D01*
X140425000Y-107065000D01*
X139992250Y-107065000D01*
X139836000Y-107221250D01*
X139836000Y-108215000D01*
X139856000Y-108215000D01*
X139856000Y-108465000D01*
X139836000Y-108465000D01*
X139836000Y-109458750D01*
X139992250Y-109615000D01*
X140425000Y-109615000D01*
X140425000Y-111654715D01*
X138936000Y-111654715D01*
X138741447Y-111691323D01*
X138562761Y-111806304D01*
X138442888Y-111981744D01*
X138400715Y-112190000D01*
X138400715Y-112226100D01*
X133071285Y-112226100D01*
X133071285Y-112190000D01*
X133034677Y-111995447D01*
X132919696Y-111816761D01*
X132744256Y-111696888D01*
X132536000Y-111654715D01*
X132524953Y-111654715D01*
X132525143Y-111436617D01*
X132399809Y-111133285D01*
X132167935Y-110901007D01*
X131864823Y-110775143D01*
X131536617Y-110774857D01*
X131233285Y-110900191D01*
X131001007Y-111132065D01*
X130891000Y-111396989D01*
X130891000Y-110909680D01*
X130795849Y-110679966D01*
X130620034Y-110504150D01*
X130474056Y-110443684D01*
X130703888Y-110099715D01*
X130804976Y-109591513D01*
X130861680Y-109615000D01*
X131479750Y-109615000D01*
X131636000Y-109458750D01*
X131636000Y-108465000D01*
X131886000Y-108465000D01*
X131886000Y-109458750D01*
X132042250Y-109615000D01*
X132660320Y-109615000D01*
X132890034Y-109519850D01*
X133065849Y-109344034D01*
X133161000Y-109114320D01*
X133161000Y-108621250D01*
X138311000Y-108621250D01*
X138311000Y-109114320D01*
X138406151Y-109344034D01*
X138581966Y-109519850D01*
X138811680Y-109615000D01*
X139429750Y-109615000D01*
X139586000Y-109458750D01*
X139586000Y-108465000D01*
X138467250Y-108465000D01*
X138311000Y-108621250D01*
X133161000Y-108621250D01*
X133004750Y-108465000D01*
X131886000Y-108465000D01*
X131636000Y-108465000D01*
X130517250Y-108465000D01*
X130446770Y-108535480D01*
X130369842Y-108420348D01*
X129869905Y-108086302D01*
X129280190Y-107969000D01*
X129219810Y-107969000D01*
X128695383Y-108073315D01*
X128260000Y-107637932D01*
X128260000Y-107565680D01*
X130361000Y-107565680D01*
X130361000Y-108058750D01*
X130517250Y-108215000D01*
X131636000Y-108215000D01*
X131636000Y-107221250D01*
X131886000Y-107221250D01*
X131886000Y-108215000D01*
X133004750Y-108215000D01*
X133161000Y-108058750D01*
X133161000Y-107565680D01*
X138311000Y-107565680D01*
X138311000Y-108058750D01*
X138467250Y-108215000D01*
X139586000Y-108215000D01*
X139586000Y-107221250D01*
X139429750Y-107065000D01*
X138811680Y-107065000D01*
X138581966Y-107160150D01*
X138406151Y-107335966D01*
X138311000Y-107565680D01*
X133161000Y-107565680D01*
X133065849Y-107335966D01*
X132890034Y-107160150D01*
X132660320Y-107065000D01*
X132042250Y-107065000D01*
X131886000Y-107221250D01*
X131636000Y-107221250D01*
X131479750Y-107065000D01*
X130861680Y-107065000D01*
X130631966Y-107160150D01*
X130456151Y-107335966D01*
X130361000Y-107565680D01*
X128260000Y-107565680D01*
X128260000Y-106485285D01*
X128985000Y-106485285D01*
X129179553Y-106448677D01*
X129300750Y-106370689D01*
X129406744Y-106443112D01*
X129615000Y-106485285D01*
X130415000Y-106485285D01*
X130609553Y-106448677D01*
X130788239Y-106333696D01*
X130798433Y-106318777D01*
X130801304Y-106323239D01*
X130976744Y-106443112D01*
X130990199Y-106445837D01*
X131093308Y-106600151D01*
X131123966Y-106646034D01*
X131338966Y-106861034D01*
X131550490Y-107002369D01*
X131591887Y-107010604D01*
X131800000Y-107052001D01*
X131800005Y-107052000D01*
X136085154Y-107052000D01*
X136132065Y-107098993D01*
X136435177Y-107224857D01*
X136763383Y-107225143D01*
X137066715Y-107099809D01*
X137298993Y-106867935D01*
X137424857Y-106564823D01*
X137424926Y-106485285D01*
X137985000Y-106485285D01*
X138179553Y-106448677D01*
X138210122Y-106429006D01*
X138260966Y-106479850D01*
X138490680Y-106575000D01*
X138733750Y-106575000D01*
X138890000Y-106418750D01*
X138890000Y-105625000D01*
X139140000Y-105625000D01*
X139140000Y-106418750D01*
X139296250Y-106575000D01*
X139539320Y-106575000D01*
X139769034Y-106479850D01*
X139944849Y-106304034D01*
X140040000Y-106074320D01*
X140040000Y-105781250D01*
X139883750Y-105625000D01*
X139140000Y-105625000D01*
X138890000Y-105625000D01*
X138870000Y-105625000D01*
X138870000Y-105375000D01*
X138890000Y-105375000D01*
X138890000Y-105355000D01*
X139140000Y-105355000D01*
X139140000Y-105375000D01*
X139883750Y-105375000D01*
X140040000Y-105218750D01*
X140040000Y-104925680D01*
X139944849Y-104695966D01*
X139769034Y-104520150D01*
X139541313Y-104425826D01*
X139624804Y-104224758D01*
X139625195Y-103777205D01*
X139454285Y-103363571D01*
X139138093Y-103046828D01*
X138724758Y-102875196D01*
X138277205Y-102874805D01*
X137863571Y-103045715D01*
X137695285Y-103213708D01*
X137695285Y-102942000D01*
X137658677Y-102747447D01*
X137543696Y-102568761D01*
X137537414Y-102564469D01*
X137689850Y-102412034D01*
X137785000Y-102182320D01*
X137785000Y-101831250D01*
X137628750Y-101675000D01*
X136685000Y-101675000D01*
X136685000Y-101695000D01*
X136435000Y-101695000D01*
X136435000Y-101675000D01*
X135491250Y-101675000D01*
X135472165Y-101694085D01*
X135423696Y-101618761D01*
X135248256Y-101498888D01*
X135040000Y-101456715D01*
X133840000Y-101456715D01*
X133658965Y-101490779D01*
X133534065Y-101365879D01*
X133534065Y-101351920D01*
X133497457Y-101157367D01*
X133382476Y-100978681D01*
X133207036Y-100858808D01*
X132998780Y-100816635D01*
X132201220Y-100816635D01*
X132006667Y-100853243D01*
X131871174Y-100940430D01*
X131752814Y-100822071D01*
X131523100Y-100726920D01*
X131281250Y-100726920D01*
X131125000Y-100883170D01*
X131125000Y-101625700D01*
X131145000Y-101625700D01*
X131145000Y-101875700D01*
X131125000Y-101875700D01*
X131125000Y-101895700D01*
X130875000Y-101895700D01*
X130875000Y-101875700D01*
X130132470Y-101875700D01*
X130038460Y-101969710D01*
X129943750Y-101875000D01*
X129225000Y-101875000D01*
X129225000Y-101895000D01*
X129136284Y-101895000D01*
X129108113Y-101889396D01*
X128955000Y-101858939D01*
X128955000Y-101625000D01*
X128975000Y-101625000D01*
X128975000Y-100881250D01*
X129225000Y-100881250D01*
X129225000Y-101625000D01*
X129943750Y-101625000D01*
X130037760Y-101530990D01*
X130132470Y-101625700D01*
X130875000Y-101625700D01*
X130875000Y-100883170D01*
X130718750Y-100726920D01*
X130476900Y-100726920D01*
X130247186Y-100822071D01*
X130071370Y-100997886D01*
X130038508Y-101077223D01*
X130004850Y-100995966D01*
X129829034Y-100820151D01*
X129599320Y-100725000D01*
X129381250Y-100725000D01*
X129225000Y-100881250D01*
X128975000Y-100881250D01*
X128818750Y-100725000D01*
X128600680Y-100725000D01*
X128370966Y-100820151D01*
X128195150Y-100995966D01*
X128100000Y-101225680D01*
X128100000Y-101468750D01*
X128256248Y-101624998D01*
X128247709Y-101624998D01*
X128243696Y-101618761D01*
X128068256Y-101498888D01*
X127860000Y-101456715D01*
X126660000Y-101456715D01*
X126465447Y-101493323D01*
X126286761Y-101608304D01*
X126228022Y-101694272D01*
X126208750Y-101675000D01*
X125265000Y-101675000D01*
X125265000Y-101695000D01*
X125015000Y-101695000D01*
X125015000Y-101675000D01*
X124995000Y-101675000D01*
X124995000Y-101425000D01*
X125015000Y-101425000D01*
X125015000Y-101405000D01*
X125265000Y-101405000D01*
X125265000Y-101425000D01*
X126208750Y-101425000D01*
X126365000Y-101268750D01*
X126365000Y-100917680D01*
X126269850Y-100687966D01*
X126156883Y-100575000D01*
X135543117Y-100575000D01*
X135430150Y-100687966D01*
X135430150Y-100687966D01*
G37*
X135430150Y-100687966D02*
X135335000Y-100917680D01*
X135335000Y-101268750D01*
X135491250Y-101425000D01*
X136435000Y-101425000D01*
X136435000Y-101405000D01*
X136685000Y-101405000D01*
X136685000Y-101425000D01*
X137628750Y-101425000D01*
X137785000Y-101268750D01*
X137785000Y-100917680D01*
X137689850Y-100687966D01*
X137576883Y-100575000D01*
X140425000Y-100575000D01*
X140425000Y-107065000D01*
X139992250Y-107065000D01*
X139836000Y-107221250D01*
X139836000Y-108215000D01*
X139856000Y-108215000D01*
X139856000Y-108465000D01*
X139836000Y-108465000D01*
X139836000Y-109458750D01*
X139992250Y-109615000D01*
X140425000Y-109615000D01*
X140425000Y-111654715D01*
X138936000Y-111654715D01*
X138741447Y-111691323D01*
X138562761Y-111806304D01*
X138442888Y-111981744D01*
X138400715Y-112190000D01*
X138400715Y-112226100D01*
X133071285Y-112226100D01*
X133071285Y-112190000D01*
X133034677Y-111995447D01*
X132919696Y-111816761D01*
X132744256Y-111696888D01*
X132536000Y-111654715D01*
X132524953Y-111654715D01*
X132525143Y-111436617D01*
X132399809Y-111133285D01*
X132167935Y-110901007D01*
X131864823Y-110775143D01*
X131536617Y-110774857D01*
X131233285Y-110900191D01*
X131001007Y-111132065D01*
X130891000Y-111396989D01*
X130891000Y-110909680D01*
X130795849Y-110679966D01*
X130620034Y-110504150D01*
X130474056Y-110443684D01*
X130703888Y-110099715D01*
X130804976Y-109591513D01*
X130861680Y-109615000D01*
X131479750Y-109615000D01*
X131636000Y-109458750D01*
X131636000Y-108465000D01*
X131886000Y-108465000D01*
X131886000Y-109458750D01*
X132042250Y-109615000D01*
X132660320Y-109615000D01*
X132890034Y-109519850D01*
X133065849Y-109344034D01*
X133161000Y-109114320D01*
X133161000Y-108621250D01*
X138311000Y-108621250D01*
X138311000Y-109114320D01*
X138406151Y-109344034D01*
X138581966Y-109519850D01*
X138811680Y-109615000D01*
X139429750Y-109615000D01*
X139586000Y-109458750D01*
X139586000Y-108465000D01*
X138467250Y-108465000D01*
X138311000Y-108621250D01*
X133161000Y-108621250D01*
X133004750Y-108465000D01*
X131886000Y-108465000D01*
X131636000Y-108465000D01*
X130517250Y-108465000D01*
X130446770Y-108535480D01*
X130369842Y-108420348D01*
X129869905Y-108086302D01*
X129280190Y-107969000D01*
X129219810Y-107969000D01*
X128695383Y-108073315D01*
X128260000Y-107637932D01*
X128260000Y-107565680D01*
X130361000Y-107565680D01*
X130361000Y-108058750D01*
X130517250Y-108215000D01*
X131636000Y-108215000D01*
X131636000Y-107221250D01*
X131886000Y-107221250D01*
X131886000Y-108215000D01*
X133004750Y-108215000D01*
X133161000Y-108058750D01*
X133161000Y-107565680D01*
X138311000Y-107565680D01*
X138311000Y-108058750D01*
X138467250Y-108215000D01*
X139586000Y-108215000D01*
X139586000Y-107221250D01*
X139429750Y-107065000D01*
X138811680Y-107065000D01*
X138581966Y-107160150D01*
X138406151Y-107335966D01*
X138311000Y-107565680D01*
X133161000Y-107565680D01*
X133065849Y-107335966D01*
X132890034Y-107160150D01*
X132660320Y-107065000D01*
X132042250Y-107065000D01*
X131886000Y-107221250D01*
X131636000Y-107221250D01*
X131479750Y-107065000D01*
X130861680Y-107065000D01*
X130631966Y-107160150D01*
X130456151Y-107335966D01*
X130361000Y-107565680D01*
X128260000Y-107565680D01*
X128260000Y-106485285D01*
X128985000Y-106485285D01*
X129179553Y-106448677D01*
X129300750Y-106370689D01*
X129406744Y-106443112D01*
X129615000Y-106485285D01*
X130415000Y-106485285D01*
X130609553Y-106448677D01*
X130788239Y-106333696D01*
X130798433Y-106318777D01*
X130801304Y-106323239D01*
X130976744Y-106443112D01*
X130990199Y-106445837D01*
X131093308Y-106600151D01*
X131123966Y-106646034D01*
X131338966Y-106861034D01*
X131550490Y-107002369D01*
X131591887Y-107010604D01*
X131800000Y-107052001D01*
X131800005Y-107052000D01*
X136085154Y-107052000D01*
X136132065Y-107098993D01*
X136435177Y-107224857D01*
X136763383Y-107225143D01*
X137066715Y-107099809D01*
X137298993Y-106867935D01*
X137424857Y-106564823D01*
X137424926Y-106485285D01*
X137985000Y-106485285D01*
X138179553Y-106448677D01*
X138210122Y-106429006D01*
X138260966Y-106479850D01*
X138490680Y-106575000D01*
X138733750Y-106575000D01*
X138890000Y-106418750D01*
X138890000Y-105625000D01*
X139140000Y-105625000D01*
X139140000Y-106418750D01*
X139296250Y-106575000D01*
X139539320Y-106575000D01*
X139769034Y-106479850D01*
X139944849Y-106304034D01*
X140040000Y-106074320D01*
X140040000Y-105781250D01*
X139883750Y-105625000D01*
X139140000Y-105625000D01*
X138890000Y-105625000D01*
X138870000Y-105625000D01*
X138870000Y-105375000D01*
X138890000Y-105375000D01*
X138890000Y-105355000D01*
X139140000Y-105355000D01*
X139140000Y-105375000D01*
X139883750Y-105375000D01*
X140040000Y-105218750D01*
X140040000Y-104925680D01*
X139944849Y-104695966D01*
X139769034Y-104520150D01*
X139541313Y-104425826D01*
X139624804Y-104224758D01*
X139625195Y-103777205D01*
X139454285Y-103363571D01*
X139138093Y-103046828D01*
X138724758Y-102875196D01*
X138277205Y-102874805D01*
X137863571Y-103045715D01*
X137695285Y-103213708D01*
X137695285Y-102942000D01*
X137658677Y-102747447D01*
X137543696Y-102568761D01*
X137537414Y-102564469D01*
X137689850Y-102412034D01*
X137785000Y-102182320D01*
X137785000Y-101831250D01*
X137628750Y-101675000D01*
X136685000Y-101675000D01*
X136685000Y-101695000D01*
X136435000Y-101695000D01*
X136435000Y-101675000D01*
X135491250Y-101675000D01*
X135472165Y-101694085D01*
X135423696Y-101618761D01*
X135248256Y-101498888D01*
X135040000Y-101456715D01*
X133840000Y-101456715D01*
X133658965Y-101490779D01*
X133534065Y-101365879D01*
X133534065Y-101351920D01*
X133497457Y-101157367D01*
X133382476Y-100978681D01*
X133207036Y-100858808D01*
X132998780Y-100816635D01*
X132201220Y-100816635D01*
X132006667Y-100853243D01*
X131871174Y-100940430D01*
X131752814Y-100822071D01*
X131523100Y-100726920D01*
X131281250Y-100726920D01*
X131125000Y-100883170D01*
X131125000Y-101625700D01*
X131145000Y-101625700D01*
X131145000Y-101875700D01*
X131125000Y-101875700D01*
X131125000Y-101895700D01*
X130875000Y-101895700D01*
X130875000Y-101875700D01*
X130132470Y-101875700D01*
X130038460Y-101969710D01*
X129943750Y-101875000D01*
X129225000Y-101875000D01*
X129225000Y-101895000D01*
X129136284Y-101895000D01*
X129108113Y-101889396D01*
X128955000Y-101858939D01*
X128955000Y-101625000D01*
X128975000Y-101625000D01*
X128975000Y-100881250D01*
X129225000Y-100881250D01*
X129225000Y-101625000D01*
X129943750Y-101625000D01*
X130037760Y-101530990D01*
X130132470Y-101625700D01*
X130875000Y-101625700D01*
X130875000Y-100883170D01*
X130718750Y-100726920D01*
X130476900Y-100726920D01*
X130247186Y-100822071D01*
X130071370Y-100997886D01*
X130038508Y-101077223D01*
X130004850Y-100995966D01*
X129829034Y-100820151D01*
X129599320Y-100725000D01*
X129381250Y-100725000D01*
X129225000Y-100881250D01*
X128975000Y-100881250D01*
X128818750Y-100725000D01*
X128600680Y-100725000D01*
X128370966Y-100820151D01*
X128195150Y-100995966D01*
X128100000Y-101225680D01*
X128100000Y-101468750D01*
X128256248Y-101624998D01*
X128247709Y-101624998D01*
X128243696Y-101618761D01*
X128068256Y-101498888D01*
X127860000Y-101456715D01*
X126660000Y-101456715D01*
X126465447Y-101493323D01*
X126286761Y-101608304D01*
X126228022Y-101694272D01*
X126208750Y-101675000D01*
X125265000Y-101675000D01*
X125265000Y-101695000D01*
X125015000Y-101695000D01*
X125015000Y-101675000D01*
X124995000Y-101675000D01*
X124995000Y-101425000D01*
X125015000Y-101425000D01*
X125015000Y-101405000D01*
X125265000Y-101405000D01*
X125265000Y-101425000D01*
X126208750Y-101425000D01*
X126365000Y-101268750D01*
X126365000Y-100917680D01*
X126269850Y-100687966D01*
X126156883Y-100575000D01*
X135543117Y-100575000D01*
X135430150Y-100687966D01*
G36*
X119505000Y-109095000D02*
X119523019Y-109095000D01*
X119523019Y-109345000D01*
X119505000Y-109345000D01*
X119505000Y-110087530D01*
X119523019Y-110105549D01*
X119523019Y-110999716D01*
X119287234Y-111235500D01*
X118335285Y-111235500D01*
X118335285Y-111052500D01*
X118312364Y-110930687D01*
X118335285Y-110817500D01*
X118335285Y-110523410D01*
X118425000Y-110306820D01*
X118425000Y-110238750D01*
X118268750Y-110082500D01*
X118208302Y-110082500D01*
X118183696Y-110044261D01*
X118093405Y-109982568D01*
X118158024Y-109940987D01*
X118290328Y-109914670D01*
X118397598Y-109842994D01*
X118451371Y-109972814D01*
X118627186Y-110148630D01*
X118856900Y-110243780D01*
X119098750Y-110243780D01*
X119255000Y-110087530D01*
X119255000Y-109345000D01*
X119235000Y-109345000D01*
X119235000Y-109095000D01*
X119255000Y-109095000D01*
X119255000Y-109075000D01*
X119505000Y-109075000D01*
X119505000Y-109095000D01*
X119505000Y-109095000D01*
G37*
X119505000Y-109095000D02*
X119523019Y-109095000D01*
X119523019Y-109345000D01*
X119505000Y-109345000D01*
X119505000Y-110087530D01*
X119523019Y-110105549D01*
X119523019Y-110999716D01*
X119287234Y-111235500D01*
X118335285Y-111235500D01*
X118335285Y-111052500D01*
X118312364Y-110930687D01*
X118335285Y-110817500D01*
X118335285Y-110523410D01*
X118425000Y-110306820D01*
X118425000Y-110238750D01*
X118268750Y-110082500D01*
X118208302Y-110082500D01*
X118183696Y-110044261D01*
X118093405Y-109982568D01*
X118158024Y-109940987D01*
X118290328Y-109914670D01*
X118397598Y-109842994D01*
X118451371Y-109972814D01*
X118627186Y-110148630D01*
X118856900Y-110243780D01*
X119098750Y-110243780D01*
X119255000Y-110087530D01*
X119255000Y-109345000D01*
X119235000Y-109345000D01*
X119235000Y-109095000D01*
X119255000Y-109095000D01*
X119255000Y-109075000D01*
X119505000Y-109075000D01*
X119505000Y-109095000D01*
G36*
X107159000Y-107405000D02*
X107179000Y-107405000D01*
X107179000Y-107655000D01*
X107159000Y-107655000D01*
X107159000Y-107675000D01*
X106909000Y-107675000D01*
X106909000Y-107655000D01*
X106889000Y-107655000D01*
X106889000Y-107405000D01*
X106909000Y-107405000D01*
X106909000Y-107385000D01*
X107159000Y-107385000D01*
X107159000Y-107405000D01*
X107159000Y-107405000D01*
G37*
X107159000Y-107405000D02*
X107179000Y-107405000D01*
X107179000Y-107655000D01*
X107159000Y-107655000D01*
X107159000Y-107675000D01*
X106909000Y-107675000D01*
X106909000Y-107655000D01*
X106889000Y-107655000D01*
X106889000Y-107405000D01*
X106909000Y-107405000D01*
X106909000Y-107385000D01*
X107159000Y-107385000D01*
X107159000Y-107405000D01*
G36*
X124010150Y-100687966D02*
X123980826Y-100758761D01*
X123899320Y-100725000D01*
X123681250Y-100725000D01*
X123525000Y-100881250D01*
X123525000Y-101625000D01*
X123545000Y-101625000D01*
X123545000Y-101848000D01*
X123255000Y-101848000D01*
X123255000Y-101625000D01*
X123275000Y-101625000D01*
X123275000Y-100881250D01*
X123118750Y-100725000D01*
X122900680Y-100725000D01*
X122670966Y-100820151D01*
X122542005Y-100949111D01*
X122458256Y-100891888D01*
X122250000Y-100849715D01*
X121350000Y-100849715D01*
X121155447Y-100886323D01*
X121048255Y-100955299D01*
X120907036Y-100858808D01*
X120698780Y-100816635D01*
X119901220Y-100816635D01*
X119706667Y-100853243D01*
X119527981Y-100968224D01*
X119501081Y-101007594D01*
X119482476Y-100978681D01*
X119307036Y-100858808D01*
X119098780Y-100816635D01*
X118301220Y-100816635D01*
X118106667Y-100853243D01*
X117949609Y-100954307D01*
X117858256Y-100891888D01*
X117650000Y-100849715D01*
X116750000Y-100849715D01*
X116555447Y-100886323D01*
X116376761Y-101001304D01*
X116333367Y-101064813D01*
X116304850Y-100995966D01*
X116129034Y-100820151D01*
X115899320Y-100725000D01*
X115681250Y-100725000D01*
X115525000Y-100881250D01*
X115525000Y-101625000D01*
X115545000Y-101625000D01*
X115545000Y-101875000D01*
X115525000Y-101875000D01*
X115525000Y-101895000D01*
X115275000Y-101895000D01*
X115275000Y-101875000D01*
X113925000Y-101875000D01*
X113925000Y-101895000D01*
X113675000Y-101895000D01*
X113675000Y-101875000D01*
X112325000Y-101875000D01*
X112325000Y-101895000D01*
X112075000Y-101895000D01*
X112075000Y-101875000D01*
X112055000Y-101875000D01*
X112055000Y-101625000D01*
X112075000Y-101625000D01*
X112075000Y-100881250D01*
X112325000Y-100881250D01*
X112325000Y-101625000D01*
X113675000Y-101625000D01*
X113675000Y-100881250D01*
X113925000Y-100881250D01*
X113925000Y-101625000D01*
X115275000Y-101625000D01*
X115275000Y-100881250D01*
X115118750Y-100725000D01*
X114900680Y-100725000D01*
X114670966Y-100820151D01*
X114600000Y-100891117D01*
X114529034Y-100820151D01*
X114299320Y-100725000D01*
X114081250Y-100725000D01*
X113925000Y-100881250D01*
X113675000Y-100881250D01*
X113518750Y-100725000D01*
X113300680Y-100725000D01*
X113070966Y-100820151D01*
X113000000Y-100891117D01*
X112929034Y-100820151D01*
X112699320Y-100725000D01*
X112481250Y-100725000D01*
X112325000Y-100881250D01*
X112075000Y-100881250D01*
X111918750Y-100725000D01*
X111700680Y-100725000D01*
X111470966Y-100820151D01*
X111325000Y-100966116D01*
X111325000Y-100725680D01*
X111262586Y-100575000D01*
X124123117Y-100575000D01*
X124010150Y-100687966D01*
X124010150Y-100687966D01*
G37*
X124010150Y-100687966D02*
X123980826Y-100758761D01*
X123899320Y-100725000D01*
X123681250Y-100725000D01*
X123525000Y-100881250D01*
X123525000Y-101625000D01*
X123545000Y-101625000D01*
X123545000Y-101848000D01*
X123255000Y-101848000D01*
X123255000Y-101625000D01*
X123275000Y-101625000D01*
X123275000Y-100881250D01*
X123118750Y-100725000D01*
X122900680Y-100725000D01*
X122670966Y-100820151D01*
X122542005Y-100949111D01*
X122458256Y-100891888D01*
X122250000Y-100849715D01*
X121350000Y-100849715D01*
X121155447Y-100886323D01*
X121048255Y-100955299D01*
X120907036Y-100858808D01*
X120698780Y-100816635D01*
X119901220Y-100816635D01*
X119706667Y-100853243D01*
X119527981Y-100968224D01*
X119501081Y-101007594D01*
X119482476Y-100978681D01*
X119307036Y-100858808D01*
X119098780Y-100816635D01*
X118301220Y-100816635D01*
X118106667Y-100853243D01*
X117949609Y-100954307D01*
X117858256Y-100891888D01*
X117650000Y-100849715D01*
X116750000Y-100849715D01*
X116555447Y-100886323D01*
X116376761Y-101001304D01*
X116333367Y-101064813D01*
X116304850Y-100995966D01*
X116129034Y-100820151D01*
X115899320Y-100725000D01*
X115681250Y-100725000D01*
X115525000Y-100881250D01*
X115525000Y-101625000D01*
X115545000Y-101625000D01*
X115545000Y-101875000D01*
X115525000Y-101875000D01*
X115525000Y-101895000D01*
X115275000Y-101895000D01*
X115275000Y-101875000D01*
X113925000Y-101875000D01*
X113925000Y-101895000D01*
X113675000Y-101895000D01*
X113675000Y-101875000D01*
X112325000Y-101875000D01*
X112325000Y-101895000D01*
X112075000Y-101895000D01*
X112075000Y-101875000D01*
X112055000Y-101875000D01*
X112055000Y-101625000D01*
X112075000Y-101625000D01*
X112075000Y-100881250D01*
X112325000Y-100881250D01*
X112325000Y-101625000D01*
X113675000Y-101625000D01*
X113675000Y-100881250D01*
X113925000Y-100881250D01*
X113925000Y-101625000D01*
X115275000Y-101625000D01*
X115275000Y-100881250D01*
X115118750Y-100725000D01*
X114900680Y-100725000D01*
X114670966Y-100820151D01*
X114600000Y-100891117D01*
X114529034Y-100820151D01*
X114299320Y-100725000D01*
X114081250Y-100725000D01*
X113925000Y-100881250D01*
X113675000Y-100881250D01*
X113518750Y-100725000D01*
X113300680Y-100725000D01*
X113070966Y-100820151D01*
X113000000Y-100891117D01*
X112929034Y-100820151D01*
X112699320Y-100725000D01*
X112481250Y-100725000D01*
X112325000Y-100881250D01*
X112075000Y-100881250D01*
X111918750Y-100725000D01*
X111700680Y-100725000D01*
X111470966Y-100820151D01*
X111325000Y-100966116D01*
X111325000Y-100725680D01*
X111262586Y-100575000D01*
X124123117Y-100575000D01*
X124010150Y-100687966D01*
M02*
