G04 #@! TF.FileFunction,Copper,L2,Bot,Signal*
%FSLAX46Y46*%
G04 Gerber Fmt 4.6, Leading zero omitted, Abs format (unit mm)*
G04 Created by KiCad (PCBNEW (2015-08-18 BZR 6103)-product) date Wednesday, 26 August 2015 13:48:05*
%MOMM*%
G01*
G04 APERTURE LIST*
%ADD10C,0.150000*%
%ADD11R,0.890000X3.000000*%
%ADD12R,2.032000X2.032000*%
%ADD13O,2.032000X2.032000*%
%ADD14C,0.600000*%
%ADD15C,0.177800*%
%ADD16C,0.381000*%
%ADD17C,0.254000*%
%ADD18C,0.250000*%
G04 APERTURE END LIST*
D10*
D11*
X133500000Y-106250000D03*
X133500000Y-101750000D03*
X135500000Y-101750000D03*
X135500000Y-106250000D03*
X139500000Y-106250000D03*
X139500000Y-101750000D03*
X137500000Y-101750000D03*
X137500000Y-106250000D03*
X117500000Y-106250000D03*
X117500000Y-101750000D03*
X119500000Y-101750000D03*
X119500000Y-106250000D03*
X123500000Y-106250000D03*
X123500000Y-101750000D03*
X121500000Y-101750000D03*
X121500000Y-106250000D03*
X129500000Y-106250000D03*
X129500000Y-101750000D03*
X131500000Y-101750000D03*
X131500000Y-106250000D03*
X127500000Y-106250000D03*
X127500000Y-101750000D03*
X125500000Y-101750000D03*
X125500000Y-106250000D03*
X109500000Y-106250000D03*
X109500000Y-101750000D03*
X111500000Y-101750000D03*
X111500000Y-106250000D03*
X115500000Y-106250000D03*
X115500000Y-101750000D03*
X113500000Y-101750000D03*
X113500000Y-106250000D03*
X105500000Y-106250000D03*
X105500000Y-101750000D03*
X107500000Y-101750000D03*
X107500000Y-106250000D03*
X103500000Y-106250000D03*
X103500000Y-101750000D03*
X101500000Y-101750000D03*
X101500000Y-106250000D03*
D12*
X129250000Y-112050000D03*
D13*
X129250000Y-109510000D03*
D14*
X115900000Y-109375000D03*
X107800000Y-110400000D03*
X110800000Y-108700000D03*
X118575000Y-110400000D03*
X113225000Y-111500000D03*
X139600000Y-104000000D03*
X101400000Y-104000000D03*
X108812000Y-108685000D03*
X123600000Y-108625000D03*
X113300000Y-108250000D03*
X122550000Y-109750000D03*
X109175000Y-110775000D03*
X107850000Y-108250000D03*
X126350000Y-109750000D03*
X113182500Y-109982500D03*
X124600000Y-109775000D03*
X122528000Y-104113000D03*
X125600000Y-109050000D03*
X110300000Y-104000000D03*
X107900000Y-104000000D03*
X108250000Y-111125000D03*
X131700000Y-111600000D03*
X106526000Y-108685000D03*
X104500000Y-108700000D03*
X105575000Y-111075000D03*
X116250000Y-112500000D03*
X110750000Y-112200000D03*
X103475000Y-109600000D03*
X115025000Y-112075000D03*
X133400000Y-104000000D03*
X125730000Y-104566710D03*
X130613753Y-104566709D03*
X136600000Y-106400000D03*
D15*
X107800000Y-110400000D02*
X107858602Y-110400000D01*
X107858602Y-110400000D02*
X108075000Y-110183602D01*
X108075000Y-110183602D02*
X112141398Y-110183602D01*
X112141398Y-110183602D02*
X112925000Y-109400000D01*
X112925000Y-109400000D02*
X115875000Y-109400000D01*
X115875000Y-109400000D02*
X115900000Y-109375000D01*
X107858602Y-110400000D02*
X108075000Y-110183602D01*
X104728000Y-109828000D02*
X109672000Y-109828000D01*
X109672000Y-109828000D02*
X110800000Y-108700000D01*
X103500000Y-108600000D02*
X103500000Y-106250000D01*
X104728000Y-109828000D02*
X103500000Y-108600000D01*
D16*
X113225000Y-111500000D02*
X113287804Y-111500000D01*
X117396582Y-110400000D02*
X118575000Y-110400000D01*
X116408778Y-111387804D02*
X117396582Y-110400000D01*
X113400000Y-111387804D02*
X116408778Y-111387804D01*
X113287804Y-111500000D02*
X113400000Y-111387804D01*
X139500000Y-101750000D02*
X139500000Y-103900000D01*
X139500000Y-103900000D02*
X139600000Y-104000000D01*
X139500000Y-106250000D02*
X139500000Y-104100000D01*
X139500000Y-104100000D02*
X139600000Y-104000000D01*
X101500000Y-106250000D02*
X101500000Y-104100000D01*
X101500000Y-104100000D02*
X101400000Y-104000000D01*
X101500000Y-103900000D02*
X101500000Y-101750000D01*
X101400000Y-104000000D02*
X101500000Y-103900000D01*
X101500000Y-106760000D02*
X101500000Y-106250000D01*
D15*
X109574000Y-107923000D02*
X109574000Y-106314000D01*
X108812000Y-108685000D02*
X109574000Y-107923000D01*
X109574000Y-106314000D02*
X109496000Y-106236000D01*
X113455602Y-108405602D02*
X123380602Y-108405602D01*
X123380602Y-108405602D02*
X123600000Y-108625000D01*
X113300000Y-108250000D02*
X113455602Y-108405602D01*
X109175000Y-110775000D02*
X109497102Y-110775000D01*
X117174694Y-109472408D02*
X122272408Y-109472408D01*
X116072102Y-110575000D02*
X117174694Y-109472408D01*
X109697102Y-110575000D02*
X116072102Y-110575000D01*
X109497102Y-110775000D02*
X109697102Y-110575000D01*
X122272408Y-109472408D02*
X122550000Y-109750000D01*
X122272408Y-109472408D02*
X122550000Y-109750000D01*
X107500000Y-106250000D02*
X107500000Y-107900000D01*
X107500000Y-107900000D02*
X107850000Y-108250000D01*
X114250000Y-108050000D02*
X125550000Y-108050000D01*
X126350000Y-108850000D02*
X126350000Y-109750000D01*
X125550000Y-108050000D02*
X126350000Y-108850000D01*
X113500000Y-106250000D02*
X113500000Y-107300000D01*
X113500000Y-107300000D02*
X114250000Y-108050000D01*
X113496000Y-106236000D02*
X113496000Y-107273000D01*
X113182500Y-109982500D02*
X113188102Y-109982500D01*
X117027398Y-109116806D02*
X122763908Y-109116806D01*
X115924806Y-110219398D02*
X117027398Y-109116806D01*
X113425000Y-110219398D02*
X115924806Y-110219398D01*
X113188102Y-109982500D02*
X113425000Y-110219398D01*
X122763908Y-109116806D02*
X123202704Y-109555602D01*
X124380602Y-109555602D02*
X124600000Y-109775000D01*
X123202704Y-109555602D02*
X124380602Y-109555602D01*
X123227704Y-109580602D02*
X124380602Y-109580602D01*
X122763908Y-109116806D02*
X123227704Y-109580602D01*
X124380602Y-109580602D02*
X124600000Y-109775000D01*
X105500000Y-106250000D02*
X105500000Y-108700000D01*
X122515000Y-104100000D02*
X122528000Y-104113000D01*
X111300000Y-104100000D02*
X122515000Y-104100000D01*
X110500000Y-104900000D02*
X111300000Y-104100000D01*
X110500000Y-108100000D02*
X110500000Y-104900000D01*
X109127602Y-109472398D02*
X110500000Y-108100000D01*
X106272398Y-109472398D02*
X109127602Y-109472398D01*
X105500000Y-108700000D02*
X106272398Y-109472398D01*
X113050000Y-108850000D02*
X113586204Y-108850000D01*
X113586204Y-108850000D02*
X113675000Y-108761204D01*
X111500000Y-107300000D02*
X113050000Y-108850000D01*
X125450000Y-109200000D02*
X125600000Y-109050000D01*
X123350000Y-109200000D02*
X125450000Y-109200000D01*
X122911204Y-108761204D02*
X123350000Y-109200000D01*
X113675000Y-108761204D02*
X122911204Y-108761204D01*
X111500000Y-106250000D02*
X111500000Y-107300000D01*
D16*
X107900000Y-104000000D02*
X110300000Y-104000000D01*
D15*
X108250000Y-111125000D02*
X108500000Y-111375000D01*
X108500000Y-111375000D02*
X108800000Y-111375000D01*
X122350000Y-110375000D02*
X126550000Y-110375000D01*
X126550000Y-110375000D02*
X128725000Y-108200000D01*
X128725000Y-108200000D02*
X129775000Y-108200000D01*
X131700000Y-110125000D02*
X131700000Y-111600000D01*
X129775000Y-108200000D02*
X131700000Y-110125000D01*
X121803010Y-109828010D02*
X122350000Y-110375000D01*
X117321990Y-109828010D02*
X121803010Y-109828010D01*
X116219398Y-110930602D02*
X117321990Y-109828010D01*
X109844398Y-110930602D02*
X116219398Y-110930602D01*
X109400000Y-111375000D02*
X109844398Y-110930602D01*
X108500000Y-111375000D02*
X108800000Y-111375000D01*
X108800000Y-111375000D02*
X109400000Y-111375000D01*
X106526000Y-108685000D02*
X106526000Y-104113000D01*
X106526000Y-104113000D02*
X105496000Y-103083000D01*
X105496000Y-103083000D02*
X105496000Y-101736000D01*
X103496000Y-101736000D02*
X103496000Y-103496000D01*
X104494000Y-104494000D02*
X104500000Y-108700000D01*
X103496000Y-103496000D02*
X104494000Y-104494000D01*
X116250000Y-112500000D02*
X115425000Y-112500000D01*
X114775000Y-112650000D02*
X114200000Y-112075000D01*
X115275000Y-112650000D02*
X114775000Y-112650000D01*
X115425000Y-112500000D02*
X115275000Y-112650000D01*
X114200000Y-112075000D02*
X112950000Y-112075000D01*
X112161204Y-111286204D02*
X109991694Y-111286204D01*
X112950000Y-112075000D02*
X112161204Y-111286204D01*
X109547296Y-111730602D02*
X106230602Y-111730602D01*
X106230602Y-111730602D02*
X105575000Y-111075000D01*
X109991694Y-111286204D02*
X109547296Y-111730602D01*
X110750000Y-112200000D02*
X110636204Y-112086204D01*
X110636204Y-112086204D02*
X105711204Y-112086204D01*
X105711204Y-112086204D02*
X103475000Y-109850000D01*
X103475000Y-109850000D02*
X103475000Y-109600000D01*
D17*
X127971778Y-109510000D02*
X129250000Y-109510000D01*
X126713076Y-110768702D02*
X127971778Y-109510000D01*
X119106298Y-110768702D02*
X126713076Y-110768702D01*
X118825000Y-111050000D02*
X119106298Y-110768702D01*
X117447044Y-111050000D02*
X118825000Y-111050000D01*
X116613938Y-111883106D02*
X117447044Y-111050000D01*
X115216894Y-111883106D02*
X116613938Y-111883106D01*
X115025000Y-112075000D02*
X115216894Y-111883106D01*
D15*
X124900000Y-104000000D02*
X133400000Y-104000000D01*
X124500000Y-102127200D02*
X124500000Y-103600000D01*
X124500000Y-103600000D02*
X124900000Y-104000000D01*
X123500000Y-101750000D02*
X124122800Y-101750000D01*
X124122800Y-101750000D02*
X124500000Y-102127200D01*
X125730000Y-104566710D02*
X125730000Y-106020000D01*
X125730000Y-106020000D02*
X125500000Y-106250000D01*
X130030672Y-104355610D02*
X130402654Y-104355610D01*
X130402654Y-104355610D02*
X130613753Y-104566709D01*
X125500000Y-106250000D02*
X125500000Y-105195000D01*
X126339390Y-104355610D02*
X130030672Y-104355610D01*
X125500000Y-105195000D02*
X126339390Y-104355610D01*
D17*
X136750000Y-106250000D02*
X137500000Y-106250000D01*
X136600000Y-106400000D02*
X136750000Y-106250000D01*
D18*
G36*
X134519715Y-103250000D02*
X134556323Y-103444553D01*
X134671304Y-103623239D01*
X134846744Y-103743112D01*
X135055000Y-103785285D01*
X135945000Y-103785285D01*
X136139553Y-103748677D01*
X136318239Y-103633696D01*
X136438112Y-103458256D01*
X136480285Y-103250000D01*
X136480285Y-100575000D01*
X136519715Y-100575000D01*
X136519715Y-103250000D01*
X136556323Y-103444553D01*
X136671304Y-103623239D01*
X136846744Y-103743112D01*
X137055000Y-103785285D01*
X137375187Y-103785285D01*
X137374812Y-104214715D01*
X137055000Y-104214715D01*
X136860447Y-104251323D01*
X136681761Y-104366304D01*
X136561888Y-104541744D01*
X136519715Y-104750000D01*
X136519715Y-105574929D01*
X136480285Y-105574895D01*
X136480285Y-104750000D01*
X136443677Y-104555447D01*
X136328696Y-104376761D01*
X136153256Y-104256888D01*
X135945000Y-104214715D01*
X135055000Y-104214715D01*
X134860447Y-104251323D01*
X134681761Y-104366304D01*
X134561888Y-104541744D01*
X134519715Y-104750000D01*
X134519715Y-107750000D01*
X134556323Y-107944553D01*
X134671304Y-108123239D01*
X134846744Y-108243112D01*
X135055000Y-108285285D01*
X135945000Y-108285285D01*
X136139553Y-108248677D01*
X136318239Y-108133696D01*
X136438112Y-107958256D01*
X136480285Y-107750000D01*
X136480285Y-107224896D01*
X136519715Y-107224931D01*
X136519715Y-107750000D01*
X136556323Y-107944553D01*
X136671304Y-108123239D01*
X136846744Y-108243112D01*
X137055000Y-108285285D01*
X137945000Y-108285285D01*
X138139553Y-108248677D01*
X138318239Y-108133696D01*
X138438112Y-107958256D01*
X138446865Y-107915035D01*
X138525151Y-108104034D01*
X138700966Y-108279850D01*
X138930680Y-108375000D01*
X139218750Y-108375000D01*
X139375000Y-108218750D01*
X139375000Y-106375000D01*
X139355000Y-106375000D01*
X139355000Y-106125000D01*
X139375000Y-106125000D01*
X139375000Y-106105000D01*
X139625000Y-106105000D01*
X139625000Y-106125000D01*
X139645000Y-106125000D01*
X139645000Y-106375000D01*
X139625000Y-106375000D01*
X139625000Y-108218750D01*
X139781250Y-108375000D01*
X140069320Y-108375000D01*
X140299034Y-108279850D01*
X140425000Y-108153883D01*
X140425000Y-113425000D01*
X130790883Y-113425000D01*
X130795849Y-113420034D01*
X130891000Y-113190320D01*
X130891000Y-112331250D01*
X130734750Y-112175000D01*
X129375000Y-112175000D01*
X129375000Y-112195000D01*
X129125000Y-112195000D01*
X129125000Y-112175000D01*
X127765250Y-112175000D01*
X127609000Y-112331250D01*
X127609000Y-113190320D01*
X127704151Y-113420034D01*
X127709117Y-113425000D01*
X100575000Y-113425000D01*
X100575000Y-108153883D01*
X100700966Y-108279850D01*
X100930680Y-108375000D01*
X101218750Y-108375000D01*
X101375000Y-108218750D01*
X101375000Y-106375000D01*
X101355000Y-106375000D01*
X101355000Y-106125000D01*
X101375000Y-106125000D01*
X101375000Y-106105000D01*
X101625000Y-106105000D01*
X101625000Y-106125000D01*
X101645000Y-106125000D01*
X101645000Y-106375000D01*
X101625000Y-106375000D01*
X101625000Y-108218750D01*
X101781250Y-108375000D01*
X102069320Y-108375000D01*
X102299034Y-108279850D01*
X102474849Y-108104034D01*
X102551508Y-107918964D01*
X102556323Y-107944553D01*
X102671304Y-108123239D01*
X102846744Y-108243112D01*
X102886100Y-108251082D01*
X102886100Y-108600000D01*
X102932830Y-108834930D01*
X102989180Y-108919263D01*
X102776007Y-109132065D01*
X102650143Y-109435177D01*
X102649857Y-109763383D01*
X102775191Y-110066715D01*
X103007065Y-110298993D01*
X103090419Y-110333605D01*
X105277111Y-112520297D01*
X105476274Y-112653374D01*
X105711204Y-112700104D01*
X110083522Y-112700104D01*
X110282065Y-112898993D01*
X110585177Y-113024857D01*
X110913383Y-113025143D01*
X111216715Y-112899809D01*
X111448993Y-112667935D01*
X111574857Y-112364823D01*
X111575143Y-112036617D01*
X111518737Y-111900104D01*
X111906918Y-111900104D01*
X112515907Y-112509093D01*
X112715070Y-112642170D01*
X112950000Y-112688900D01*
X113945714Y-112688900D01*
X114340907Y-113084093D01*
X114540070Y-113217170D01*
X114775000Y-113263900D01*
X115275000Y-113263900D01*
X115509930Y-113217170D01*
X115664484Y-113113900D01*
X115697120Y-113113900D01*
X115782065Y-113198993D01*
X116085177Y-113324857D01*
X116413383Y-113325143D01*
X116716715Y-113199809D01*
X116948993Y-112967935D01*
X117074857Y-112664823D01*
X117075137Y-112343975D01*
X117717111Y-111702000D01*
X118824995Y-111702000D01*
X118825000Y-111702001D01*
X119033113Y-111660604D01*
X119074510Y-111652369D01*
X119286034Y-111511034D01*
X119376366Y-111420702D01*
X126713071Y-111420702D01*
X126713076Y-111420703D01*
X126937771Y-111376007D01*
X126962586Y-111371071D01*
X127174110Y-111229736D01*
X127690201Y-110713645D01*
X127609000Y-110909680D01*
X127609000Y-111768750D01*
X127765250Y-111925000D01*
X129125000Y-111925000D01*
X129125000Y-111905000D01*
X129375000Y-111905000D01*
X129375000Y-111925000D01*
X130734750Y-111925000D01*
X130881146Y-111778604D01*
X131000191Y-112066715D01*
X131232065Y-112298993D01*
X131535177Y-112424857D01*
X131863383Y-112425143D01*
X132166715Y-112299809D01*
X132398993Y-112067935D01*
X132524857Y-111764823D01*
X132525143Y-111436617D01*
X132399809Y-111133285D01*
X132313900Y-111047226D01*
X132313900Y-110125000D01*
X132302549Y-110067935D01*
X132267170Y-109890070D01*
X132134093Y-109690907D01*
X130423227Y-107980041D01*
X130438112Y-107958256D01*
X130480285Y-107750000D01*
X130480285Y-105391593D01*
X130519715Y-105391628D01*
X130519715Y-107750000D01*
X130556323Y-107944553D01*
X130671304Y-108123239D01*
X130846744Y-108243112D01*
X131055000Y-108285285D01*
X131945000Y-108285285D01*
X132139553Y-108248677D01*
X132318239Y-108133696D01*
X132438112Y-107958256D01*
X132480285Y-107750000D01*
X132480285Y-104750000D01*
X132454676Y-104613900D01*
X132547276Y-104613900D01*
X132519715Y-104750000D01*
X132519715Y-107750000D01*
X132556323Y-107944553D01*
X132671304Y-108123239D01*
X132846744Y-108243112D01*
X133055000Y-108285285D01*
X133945000Y-108285285D01*
X134139553Y-108248677D01*
X134318239Y-108133696D01*
X134438112Y-107958256D01*
X134480285Y-107750000D01*
X134480285Y-104750000D01*
X134443677Y-104555447D01*
X134328696Y-104376761D01*
X134179252Y-104274651D01*
X134224857Y-104164823D01*
X134225143Y-103836617D01*
X134178462Y-103723640D01*
X134318239Y-103633696D01*
X134438112Y-103458256D01*
X134480285Y-103250000D01*
X134480285Y-100575000D01*
X134519715Y-100575000D01*
X134519715Y-103250000D01*
X134519715Y-103250000D01*
G37*
X134519715Y-103250000D02*
X134556323Y-103444553D01*
X134671304Y-103623239D01*
X134846744Y-103743112D01*
X135055000Y-103785285D01*
X135945000Y-103785285D01*
X136139553Y-103748677D01*
X136318239Y-103633696D01*
X136438112Y-103458256D01*
X136480285Y-103250000D01*
X136480285Y-100575000D01*
X136519715Y-100575000D01*
X136519715Y-103250000D01*
X136556323Y-103444553D01*
X136671304Y-103623239D01*
X136846744Y-103743112D01*
X137055000Y-103785285D01*
X137375187Y-103785285D01*
X137374812Y-104214715D01*
X137055000Y-104214715D01*
X136860447Y-104251323D01*
X136681761Y-104366304D01*
X136561888Y-104541744D01*
X136519715Y-104750000D01*
X136519715Y-105574929D01*
X136480285Y-105574895D01*
X136480285Y-104750000D01*
X136443677Y-104555447D01*
X136328696Y-104376761D01*
X136153256Y-104256888D01*
X135945000Y-104214715D01*
X135055000Y-104214715D01*
X134860447Y-104251323D01*
X134681761Y-104366304D01*
X134561888Y-104541744D01*
X134519715Y-104750000D01*
X134519715Y-107750000D01*
X134556323Y-107944553D01*
X134671304Y-108123239D01*
X134846744Y-108243112D01*
X135055000Y-108285285D01*
X135945000Y-108285285D01*
X136139553Y-108248677D01*
X136318239Y-108133696D01*
X136438112Y-107958256D01*
X136480285Y-107750000D01*
X136480285Y-107224896D01*
X136519715Y-107224931D01*
X136519715Y-107750000D01*
X136556323Y-107944553D01*
X136671304Y-108123239D01*
X136846744Y-108243112D01*
X137055000Y-108285285D01*
X137945000Y-108285285D01*
X138139553Y-108248677D01*
X138318239Y-108133696D01*
X138438112Y-107958256D01*
X138446865Y-107915035D01*
X138525151Y-108104034D01*
X138700966Y-108279850D01*
X138930680Y-108375000D01*
X139218750Y-108375000D01*
X139375000Y-108218750D01*
X139375000Y-106375000D01*
X139355000Y-106375000D01*
X139355000Y-106125000D01*
X139375000Y-106125000D01*
X139375000Y-106105000D01*
X139625000Y-106105000D01*
X139625000Y-106125000D01*
X139645000Y-106125000D01*
X139645000Y-106375000D01*
X139625000Y-106375000D01*
X139625000Y-108218750D01*
X139781250Y-108375000D01*
X140069320Y-108375000D01*
X140299034Y-108279850D01*
X140425000Y-108153883D01*
X140425000Y-113425000D01*
X130790883Y-113425000D01*
X130795849Y-113420034D01*
X130891000Y-113190320D01*
X130891000Y-112331250D01*
X130734750Y-112175000D01*
X129375000Y-112175000D01*
X129375000Y-112195000D01*
X129125000Y-112195000D01*
X129125000Y-112175000D01*
X127765250Y-112175000D01*
X127609000Y-112331250D01*
X127609000Y-113190320D01*
X127704151Y-113420034D01*
X127709117Y-113425000D01*
X100575000Y-113425000D01*
X100575000Y-108153883D01*
X100700966Y-108279850D01*
X100930680Y-108375000D01*
X101218750Y-108375000D01*
X101375000Y-108218750D01*
X101375000Y-106375000D01*
X101355000Y-106375000D01*
X101355000Y-106125000D01*
X101375000Y-106125000D01*
X101375000Y-106105000D01*
X101625000Y-106105000D01*
X101625000Y-106125000D01*
X101645000Y-106125000D01*
X101645000Y-106375000D01*
X101625000Y-106375000D01*
X101625000Y-108218750D01*
X101781250Y-108375000D01*
X102069320Y-108375000D01*
X102299034Y-108279850D01*
X102474849Y-108104034D01*
X102551508Y-107918964D01*
X102556323Y-107944553D01*
X102671304Y-108123239D01*
X102846744Y-108243112D01*
X102886100Y-108251082D01*
X102886100Y-108600000D01*
X102932830Y-108834930D01*
X102989180Y-108919263D01*
X102776007Y-109132065D01*
X102650143Y-109435177D01*
X102649857Y-109763383D01*
X102775191Y-110066715D01*
X103007065Y-110298993D01*
X103090419Y-110333605D01*
X105277111Y-112520297D01*
X105476274Y-112653374D01*
X105711204Y-112700104D01*
X110083522Y-112700104D01*
X110282065Y-112898993D01*
X110585177Y-113024857D01*
X110913383Y-113025143D01*
X111216715Y-112899809D01*
X111448993Y-112667935D01*
X111574857Y-112364823D01*
X111575143Y-112036617D01*
X111518737Y-111900104D01*
X111906918Y-111900104D01*
X112515907Y-112509093D01*
X112715070Y-112642170D01*
X112950000Y-112688900D01*
X113945714Y-112688900D01*
X114340907Y-113084093D01*
X114540070Y-113217170D01*
X114775000Y-113263900D01*
X115275000Y-113263900D01*
X115509930Y-113217170D01*
X115664484Y-113113900D01*
X115697120Y-113113900D01*
X115782065Y-113198993D01*
X116085177Y-113324857D01*
X116413383Y-113325143D01*
X116716715Y-113199809D01*
X116948993Y-112967935D01*
X117074857Y-112664823D01*
X117075137Y-112343975D01*
X117717111Y-111702000D01*
X118824995Y-111702000D01*
X118825000Y-111702001D01*
X119033113Y-111660604D01*
X119074510Y-111652369D01*
X119286034Y-111511034D01*
X119376366Y-111420702D01*
X126713071Y-111420702D01*
X126713076Y-111420703D01*
X126937771Y-111376007D01*
X126962586Y-111371071D01*
X127174110Y-111229736D01*
X127690201Y-110713645D01*
X127609000Y-110909680D01*
X127609000Y-111768750D01*
X127765250Y-111925000D01*
X129125000Y-111925000D01*
X129125000Y-111905000D01*
X129375000Y-111905000D01*
X129375000Y-111925000D01*
X130734750Y-111925000D01*
X130881146Y-111778604D01*
X131000191Y-112066715D01*
X131232065Y-112298993D01*
X131535177Y-112424857D01*
X131863383Y-112425143D01*
X132166715Y-112299809D01*
X132398993Y-112067935D01*
X132524857Y-111764823D01*
X132525143Y-111436617D01*
X132399809Y-111133285D01*
X132313900Y-111047226D01*
X132313900Y-110125000D01*
X132302549Y-110067935D01*
X132267170Y-109890070D01*
X132134093Y-109690907D01*
X130423227Y-107980041D01*
X130438112Y-107958256D01*
X130480285Y-107750000D01*
X130480285Y-105391593D01*
X130519715Y-105391628D01*
X130519715Y-107750000D01*
X130556323Y-107944553D01*
X130671304Y-108123239D01*
X130846744Y-108243112D01*
X131055000Y-108285285D01*
X131945000Y-108285285D01*
X132139553Y-108248677D01*
X132318239Y-108133696D01*
X132438112Y-107958256D01*
X132480285Y-107750000D01*
X132480285Y-104750000D01*
X132454676Y-104613900D01*
X132547276Y-104613900D01*
X132519715Y-104750000D01*
X132519715Y-107750000D01*
X132556323Y-107944553D01*
X132671304Y-108123239D01*
X132846744Y-108243112D01*
X133055000Y-108285285D01*
X133945000Y-108285285D01*
X134139553Y-108248677D01*
X134318239Y-108133696D01*
X134438112Y-107958256D01*
X134480285Y-107750000D01*
X134480285Y-104750000D01*
X134443677Y-104555447D01*
X134328696Y-104376761D01*
X134179252Y-104274651D01*
X134224857Y-104164823D01*
X134225143Y-103836617D01*
X134178462Y-103723640D01*
X134318239Y-103633696D01*
X134438112Y-103458256D01*
X134480285Y-103250000D01*
X134480285Y-100575000D01*
X134519715Y-100575000D01*
X134519715Y-103250000D01*
G36*
X139625000Y-101625000D02*
X139645000Y-101625000D01*
X139645000Y-101875000D01*
X139625000Y-101875000D01*
X139625000Y-101895000D01*
X139375000Y-101895000D01*
X139375000Y-101875000D01*
X139355000Y-101875000D01*
X139355000Y-101625000D01*
X139375000Y-101625000D01*
X139375000Y-101605000D01*
X139625000Y-101605000D01*
X139625000Y-101625000D01*
X139625000Y-101625000D01*
G37*
X139625000Y-101625000D02*
X139645000Y-101625000D01*
X139645000Y-101875000D01*
X139625000Y-101875000D01*
X139625000Y-101895000D01*
X139375000Y-101895000D01*
X139375000Y-101875000D01*
X139355000Y-101875000D01*
X139355000Y-101625000D01*
X139375000Y-101625000D01*
X139375000Y-101605000D01*
X139625000Y-101605000D01*
X139625000Y-101625000D01*
G36*
X101625000Y-101625000D02*
X101645000Y-101625000D01*
X101645000Y-101875000D01*
X101625000Y-101875000D01*
X101625000Y-101895000D01*
X101375000Y-101895000D01*
X101375000Y-101875000D01*
X101355000Y-101875000D01*
X101355000Y-101625000D01*
X101375000Y-101625000D01*
X101375000Y-101605000D01*
X101625000Y-101605000D01*
X101625000Y-101625000D01*
X101625000Y-101625000D01*
G37*
X101625000Y-101625000D02*
X101645000Y-101625000D01*
X101645000Y-101875000D01*
X101625000Y-101875000D01*
X101625000Y-101895000D01*
X101375000Y-101895000D01*
X101375000Y-101875000D01*
X101355000Y-101875000D01*
X101355000Y-101625000D01*
X101375000Y-101625000D01*
X101375000Y-101605000D01*
X101625000Y-101605000D01*
X101625000Y-101625000D01*
M02*
